<mxfile host="app.diagrams.net" agent="Mozilla/5.0 (Macintosh; Intel Mac OS X 10.15; rv:135.0) Gecko/20100101 Firefox/135.0" version="26.2.14">
  <diagram name="Page-1" id="Yw92bi62agCs_hpd9ZjJ">
    <mxGraphModel dx="1448" dy="3212" grid="1" gridSize="10" guides="1" tooltips="1" connect="1" arrows="1" fold="1" page="1" pageScale="1" pageWidth="850" pageHeight="1100" math="0" shadow="0">
      <root>
        <mxCell id="0" />
        <mxCell id="1" parent="0" />
        <UserObject label="" mermaidData="{&#xa;  &quot;data&quot;: &quot;erDiagram\n    BEEHIVES {\n        int beehive_id PK \&quot;Unique ID of each beehive\&quot;\n        string name \&quot;Name of beehive\&quot;\n        point location \&quot;Location of the beehive\&quot;\n        date installation_date \&quot;Installation date of the beehive\&quot;\n        TIMESTEMP last_inspection_date \&quot;Last inspection date of beehive\&quot;\n        string notes \&quot;Some optional text\&quot;\n    }\n\n    SENSORS {\n        int sensor_id PK \&quot;Unique ID for each sensor\&quot;\n        int beehive_id FK \&quot;References BEEHIVE_ID\&quot;\n        stirng sensor_type \&quot;Sensor type name\&quot;\n        string sensor_name \&quot;Name of the sensor\&quot;\n        stringArray measurement_units \&quot;All measurement units of this sensor\&quot;\n        DATE installation_date \&quot;Installation date of sensor\&quot;\n        TIMESTAMP last_seen \&quot;Last time the sensor send values\&quot;\n        BOOLEAN is_active \&quot;Flag if sensor is active\&quot;\n    }\n\n    DATA {\n        int reading_id PK \&quot;Unique ID for each measurement from each sensor\&quot;\n        int sensor_id FK \&quot;References SENSOR_ID\&quot;\n        int beehive_id FK \&quot;References BEEHIVE_ID\&quot;\n        string measurement_unit \&quot;Entry for the measurement unit\&quot;\n        timestamp timestamp \&quot;Timestamp for when measured\&quot;\n        float value \&quot;Value of the measure, NOT NULL\&quot;\n    }\n    BEEHIVES ||--o{ SENSORS : has\n    SENSORS ||--o{ DATA : \&quot;records for each Sensor Measurement Unit and creates new Table if not exisiting - Variadic\&quot;\n\n    BEEHIVES ||--o{ DATA : has&quot;,&#xa;  &quot;config&quot;: {&#xa;    &quot;theme&quot;: &quot;neutral&quot;,&#xa;    &quot;arrowMarkerAbsolute&quot;: false,&#xa;    &quot;flowchart&quot;: {&#xa;      &quot;htmlLabels&quot;: false&#xa;    },&#xa;    &quot;sequence&quot;: {&#xa;      &quot;diagramMarginX&quot;: 50,&#xa;      &quot;diagramMarginY&quot;: 10,&#xa;      &quot;actorMargin&quot;: 50,&#xa;      &quot;width&quot;: 150,&#xa;      &quot;height&quot;: 65,&#xa;      &quot;boxMargin&quot;: 10,&#xa;      &quot;boxTextMargin&quot;: 5,&#xa;      &quot;noteMargin&quot;: 10,&#xa;      &quot;messageMargin&quot;: 35,&#xa;      &quot;mirrorActors&quot;: true,&#xa;      &quot;bottomMarginAdj&quot;: 1,&#xa;      &quot;useMaxWidth&quot;: true,&#xa;      &quot;rightAngles&quot;: false,&#xa;      &quot;showSequenceNumbers&quot;: false&#xa;    },&#xa;    &quot;gantt&quot;: {&#xa;      &quot;titleTopMargin&quot;: 25,&#xa;      &quot;barHeight&quot;: 20,&#xa;      &quot;barGap&quot;: 4,&#xa;      &quot;topPadding&quot;: 50,&#xa;      &quot;leftPadding&quot;: 75,&#xa;      &quot;gridLineStartPadding&quot;: 35,&#xa;      &quot;fontSize&quot;: 11,&#xa;      &quot;fontFamily&quot;: &quot;\&quot;Open-Sans\&quot;, \&quot;sans-serif\&quot;&quot;,&#xa;      &quot;numberSectionStyles&quot;: 4,&#xa;      &quot;axisFormat&quot;: &quot;%Y-%m-%d&quot;&#xa;    },&#xa;    &quot;securityLevel&quot;: &quot;strict&quot;,&#xa;    &quot;startOnLoad&quot;: false,&#xa;    &quot;maxTextSize&quot;: 900000&#xa;  }&#xa;}" templatePrompt="A simple digital beehive databse with Postgres. The important step is to create a database schema with scalling possibilities for new sensor types.&#xa;A Proposal could be to create a new table for each sensor type and a unique ID of each beehive." id="2">
          <mxCell style="shape=image;noLabel=1;verticalAlign=top;imageAspect=1;image=data:image/svg+xml,PHN2ZyBhcmlhLXJvbGVkZXNjcmlwdGlvbj0iZXIiIHJvbGU9ImdyYXBoaWNzLWRvY3VtZW50IGRvY3VtZW50IiB2aWV3Qm94PSItNDguNDE5MTAxNzE1MDg3ODkgMCA2MjUuOTAyNTI2ODU1NDY4OCA3NjMuNSIgc3R5bGU9Im1heC13aWR0aDogNjI1LjkwMjUyNjg1NTQ2ODhweDsiIHhtbG5zPSJodHRwOi8vd3d3LnczLm9yZy8yMDAwL3N2ZyIgd2lkdGg9IjEwMCUiIGlkPSJnZU1lcm1haWRPdXRwdXQtMTc0NTQ4NzIwNTg5OSI+PHN0eWxlPiNnZU1lcm1haWRPdXRwdXQtMTc0NTQ4NzIwNTg5OXtmb250LWZhbWlseToidHJlYnVjaGV0IG1zIix2ZXJkYW5hLGFyaWFsLHNhbnMtc2VyaWY7Zm9udC1zaXplOjE2cHg7ZmlsbDojMDAwMDAwO30jZ2VNZXJtYWlkT3V0cHV0LTE3NDU0ODcyMDU4OTkgLmVycm9yLWljb257ZmlsbDojNTUyMjIyO30jZ2VNZXJtYWlkT3V0cHV0LTE3NDU0ODcyMDU4OTkgLmVycm9yLXRleHR7ZmlsbDojNTUyMjIyO3N0cm9rZTojNTUyMjIyO30jZ2VNZXJtYWlkT3V0cHV0LTE3NDU0ODcyMDU4OTkgLmVkZ2UtdGhpY2tuZXNzLW5vcm1hbHtzdHJva2Utd2lkdGg6MXB4O30jZ2VNZXJtYWlkT3V0cHV0LTE3NDU0ODcyMDU4OTkgLmVkZ2UtdGhpY2tuZXNzLXRoaWNre3N0cm9rZS13aWR0aDozLjVweDt9I2dlTWVybWFpZE91dHB1dC0xNzQ1NDg3MjA1ODk5IC5lZGdlLXBhdHRlcm4tc29saWR7c3Ryb2tlLWRhc2hhcnJheTowO30jZ2VNZXJtYWlkT3V0cHV0LTE3NDU0ODcyMDU4OTkgLmVkZ2UtdGhpY2tuZXNzLWludmlzaWJsZXtzdHJva2Utd2lkdGg6MDtmaWxsOm5vbmU7fSNnZU1lcm1haWRPdXRwdXQtMTc0NTQ4NzIwNTg5OSAuZWRnZS1wYXR0ZXJuLWRhc2hlZHtzdHJva2UtZGFzaGFycmF5OjM7fSNnZU1lcm1haWRPdXRwdXQtMTc0NTQ4NzIwNTg5OSAuZWRnZS1wYXR0ZXJuLWRvdHRlZHtzdHJva2UtZGFzaGFycmF5OjI7fSNnZU1lcm1haWRPdXRwdXQtMTc0NTQ4NzIwNTg5OSAubWFya2Vye2ZpbGw6IzY2NjtzdHJva2U6IzY2Njt9I2dlTWVybWFpZE91dHB1dC0xNzQ1NDg3MjA1ODk5IC5tYXJrZXIuY3Jvc3N7c3Ryb2tlOiM2NjY7fSNnZU1lcm1haWRPdXRwdXQtMTc0NTQ4NzIwNTg5OSBzdmd7Zm9udC1mYW1pbHk6InRyZWJ1Y2hldCBtcyIsdmVyZGFuYSxhcmlhbCxzYW5zLXNlcmlmO2ZvbnQtc2l6ZToxNnB4O30jZ2VNZXJtYWlkT3V0cHV0LTE3NDU0ODcyMDU4OTkgcHttYXJnaW46MDt9I2dlTWVybWFpZE91dHB1dC0xNzQ1NDg3MjA1ODk5IC5lbnRpdHlCb3h7ZmlsbDojZWVlO3N0cm9rZTojOTk5O30jZ2VNZXJtYWlkT3V0cHV0LTE3NDU0ODcyMDU4OTkgLmF0dHJpYnV0ZUJveE9kZHtmaWxsOiNmZmZmZmY7c3Ryb2tlOiM5OTk7fSNnZU1lcm1haWRPdXRwdXQtMTc0NTQ4NzIwNTg5OSAuYXR0cmlidXRlQm94RXZlbntmaWxsOiNmMmYyZjI7c3Ryb2tlOiM5OTk7fSNnZU1lcm1haWRPdXRwdXQtMTc0NTQ4NzIwNTg5OSAucmVsYXRpb25zaGlwTGFiZWxCb3h7ZmlsbDpoc2woLTE2MCwgMCUsIDkzLjMzMzMzMzMzMzMlKTtvcGFjaXR5OjAuNztiYWNrZ3JvdW5kLWNvbG9yOmhzbCgtMTYwLCAwJSwgOTMuMzMzMzMzMzMzMyUpO30jZ2VNZXJtYWlkT3V0cHV0LTE3NDU0ODcyMDU4OTkgLnJlbGF0aW9uc2hpcExhYmVsQm94IHJlY3R7b3BhY2l0eTowLjU7fSNnZU1lcm1haWRPdXRwdXQtMTc0NTQ4NzIwNTg5OSAucmVsYXRpb25zaGlwTGluZXtzdHJva2U6IzY2Njt9I2dlTWVybWFpZE91dHB1dC0xNzQ1NDg3MjA1ODk5IC5lbnRpdHlUaXRsZVRleHR7dGV4dC1hbmNob3I6bWlkZGxlO2ZvbnQtc2l6ZToxOHB4O2ZpbGw6IzAwMDAwMDt9I2dlTWVybWFpZE91dHB1dC0xNzQ1NDg3MjA1ODk5ICNNRF9QQVJFTlRfU1RBUlR7ZmlsbDojZjVmNWY1IWltcG9ydGFudDtzdHJva2U6IzY2NiFpbXBvcnRhbnQ7c3Ryb2tlLXdpZHRoOjE7fSNnZU1lcm1haWRPdXRwdXQtMTc0NTQ4NzIwNTg5OSAjTURfUEFSRU5UX0VORHtmaWxsOiNmNWY1ZjUhaW1wb3J0YW50O3N0cm9rZTojNjY2IWltcG9ydGFudDtzdHJva2Utd2lkdGg6MTt9I2dlTWVybWFpZE91dHB1dC0xNzQ1NDg3MjA1ODk5IDpyb290ey0tbWVybWFpZC1mb250LWZhbWlseToidHJlYnVjaGV0IG1zIix2ZXJkYW5hLGFyaWFsLHNhbnMtc2VyaWY7fTwvc3R5bGU+PGc+PC9nPjxkZWZzPjxtYXJrZXIgb3JpZW50PSJhdXRvIiBtYXJrZXJIZWlnaHQ9IjI0MCIgbWFya2VyV2lkdGg9IjE5MCIgcmVmWT0iNyIgcmVmWD0iMCIgaWQ9Ik1EX1BBUkVOVF9TVEFSVCI+PHBhdGggZD0iTSAxOCw3IEw5LDEzIEwxLDcgTDksMSBaIj48L3BhdGg+PC9tYXJrZXI+PC9kZWZzPjxkZWZzPjxtYXJrZXIgb3JpZW50PSJhdXRvIiBtYXJrZXJIZWlnaHQ9IjI4IiBtYXJrZXJXaWR0aD0iMjAiIHJlZlk9IjciIHJlZlg9IjE5IiBpZD0iTURfUEFSRU5UX0VORCI+PHBhdGggZD0iTSAxOCw3IEw5LDEzIEwxLDcgTDksMSBaIj48L3BhdGg+PC9tYXJrZXI+PC9kZWZzPjxkZWZzPjxtYXJrZXIgb3JpZW50PSJhdXRvIiBtYXJrZXJIZWlnaHQ9IjE4IiBtYXJrZXJXaWR0aD0iMTgiIHJlZlk9IjkiIHJlZlg9IjAiIGlkPSJPTkxZX09ORV9TVEFSVCI+PHBhdGggZD0iTTksMCBMOSwxOCBNMTUsMCBMMTUsMTgiIGZpbGw9Im5vbmUiIHN0cm9rZT0iZ3JheSI+PC9wYXRoPjwvbWFya2VyPjwvZGVmcz48ZGVmcz48bWFya2VyIG9yaWVudD0iYXV0byIgbWFya2VySGVpZ2h0PSIxOCIgbWFya2VyV2lkdGg9IjE4IiByZWZZPSI5IiByZWZYPSIxOCIgaWQ9Ik9OTFlfT05FX0VORCI+PHBhdGggZD0iTTMsMCBMMywxOCBNOSwwIEw5LDE4IiBmaWxsPSJub25lIiBzdHJva2U9ImdyYXkiPjwvcGF0aD48L21hcmtlcj48L2RlZnM+PGRlZnM+PG1hcmtlciBvcmllbnQ9ImF1dG8iIG1hcmtlckhlaWdodD0iMTgiIG1hcmtlcldpZHRoPSIzMCIgcmVmWT0iOSIgcmVmWD0iMCIgaWQ9IlpFUk9fT1JfT05FX1NUQVJUIj48Y2lyY2xlIHI9IjYiIGN5PSI5IiBjeD0iMjEiIGZpbGw9IndoaXRlIiBzdHJva2U9ImdyYXkiPjwvY2lyY2xlPjxwYXRoIGQ9Ik05LDAgTDksMTgiIGZpbGw9Im5vbmUiIHN0cm9rZT0iZ3JheSI+PC9wYXRoPjwvbWFya2VyPjwvZGVmcz48ZGVmcz48bWFya2VyIG9yaWVudD0iYXV0byIgbWFya2VySGVpZ2h0PSIxOCIgbWFya2VyV2lkdGg9IjMwIiByZWZZPSI5IiByZWZYPSIzMCIgaWQ9IlpFUk9fT1JfT05FX0VORCI+PGNpcmNsZSByPSI2IiBjeT0iOSIgY3g9IjkiIGZpbGw9IndoaXRlIiBzdHJva2U9ImdyYXkiPjwvY2lyY2xlPjxwYXRoIGQ9Ik0yMSwwIEwyMSwxOCIgZmlsbD0ibm9uZSIgc3Ryb2tlPSJncmF5Ij48L3BhdGg+PC9tYXJrZXI+PC9kZWZzPjxkZWZzPjxtYXJrZXIgb3JpZW50PSJhdXRvIiBtYXJrZXJIZWlnaHQ9IjM2IiBtYXJrZXJXaWR0aD0iNDUiIHJlZlk9IjE4IiByZWZYPSIxOCIgaWQ9Ik9ORV9PUl9NT1JFX1NUQVJUIj48cGF0aCBkPSJNMCwxOCBRIDE4LDAgMzYsMTggUSAxOCwzNiAwLDE4IE00Miw5IEw0MiwyNyIgZmlsbD0ibm9uZSIgc3Ryb2tlPSJncmF5Ij48L3BhdGg+PC9tYXJrZXI+PC9kZWZzPjxkZWZzPjxtYXJrZXIgb3JpZW50PSJhdXRvIiBtYXJrZXJIZWlnaHQ9IjM2IiBtYXJrZXJXaWR0aD0iNDUiIHJlZlk9IjE4IiByZWZYPSIyNyIgaWQ9Ik9ORV9PUl9NT1JFX0VORCI+PHBhdGggZD0iTTMsOSBMMywyNyBNOSwxOCBRMjcsMCA0NSwxOCBRMjcsMzYgOSwxOCIgZmlsbD0ibm9uZSIgc3Ryb2tlPSJncmF5Ij48L3BhdGg+PC9tYXJrZXI+PC9kZWZzPjxkZWZzPjxtYXJrZXIgb3JpZW50PSJhdXRvIiBtYXJrZXJIZWlnaHQ9IjM2IiBtYXJrZXJXaWR0aD0iNTciIHJlZlk9IjE4IiByZWZYPSIxOCIgaWQ9IlpFUk9fT1JfTU9SRV9TVEFSVCI+PGNpcmNsZSByPSI2IiBjeT0iMTgiIGN4PSI0OCIgZmlsbD0id2hpdGUiIHN0cm9rZT0iZ3JheSI+PC9jaXJjbGU+PHBhdGggZD0iTTAsMTggUTE4LDAgMzYsMTggUTE4LDM2IDAsMTgiIGZpbGw9Im5vbmUiIHN0cm9rZT0iZ3JheSI+PC9wYXRoPjwvbWFya2VyPjwvZGVmcz48ZGVmcz48bWFya2VyIG9yaWVudD0iYXV0byIgbWFya2VySGVpZ2h0PSIzNiIgbWFya2VyV2lkdGg9IjU3IiByZWZZPSIxOCIgcmVmWD0iMzkiIGlkPSJaRVJPX09SX01PUkVfRU5EIj48Y2lyY2xlIHI9IjYiIGN5PSIxOCIgY3g9IjkiIGZpbGw9IndoaXRlIiBzdHJva2U9ImdyYXkiPjwvY2lyY2xlPjxwYXRoIGQ9Ik0yMSwxOCBRMzksMCA1NywxOCBRMzksMzYgMjEsMTgiIGZpbGw9Im5vbmUiIHN0cm9rZT0iZ3JheSI+PC9wYXRoPjwvbWFya2VyPjwvZGVmcz48cGF0aCBtYXJrZXItc3RhcnQ9InVybCgjT05MWV9PTkVfU1RBUlQpIiBtYXJrZXItZW5kPSJ1cmwoI1pFUk9fT1JfTU9SRV9FTkQpIiBzdHlsZT0ic3Ryb2tlOiBncmF5OyBmaWxsOiBub25lOyIgZD0iTTI1Ny42ODcsMTc5LjVMMjQ4LjU5NSwxODcuODMzQzIzOS41MDIsMTk2LjE2NywyMjEuMzE4LDIxMi44MzMsMjEyLjIyNiwyMjkuNUMyMDMuMTMzLDI0Ni4xNjcsMjAzLjEzMywyNjIuODMzLDIwMy4xMzMsMjcxLjE2N0wyMDMuMTMzLDI3OS41IiBjbGFzcz0iZXIgcmVsYXRpb25zaGlwTGluZSI+PC9wYXRoPjxwYXRoIG1hcmtlci1zdGFydD0idXJsKCNPTkxZX09ORV9TVEFSVCkiIG1hcmtlci1lbmQ9InVybCgjWkVST19PUl9NT1JFX0VORCkiIHN0eWxlPSJzdHJva2U6IGdyYXk7IGZpbGw6IG5vbmU7IiBkPSJNMjAzLjEzMyw0ODRMMjAzLjEzMyw0OTIuMzMzQzIwMy4xMzMsNTAwLjY2NywyMDMuMTMzLDUxNy4zMzMsMjEyLjIyNiw1MzRDMjIxLjMxOCw1NTAuNjY3LDIzOS41MDIsNTY3LjMzMywyNDguNTk1LDU3NS42NjdMMjU3LjY4Nyw1ODQiIGNsYXNzPSJlciByZWxhdGlvbnNoaXBMaW5lIj48L3BhdGg+PHBhdGggbWFya2VyLXN0YXJ0PSJ1cmwoI09OTFlfT05FX1NUQVJUKSIgbWFya2VyLWVuZD0idXJsKCNaRVJPX09SX01PUkVfRU5EKSIgc3R5bGU9InN0cm9rZTogZ3JheTsgZmlsbDogbm9uZTsiIGQ9Ik00MzEuNzEzLDE3OS41TDQ0MC44MDUsMTg3LjgzM0M0NDkuODk4LDE5Ni4xNjcsNDY4LjA4MiwyMTIuODMzLDQ3Ny4xNzQsMjQ2LjU0MkM0ODYuMjY3LDI4MC4yNSw0ODYuMjY3LDMzMSw0ODYuMjY3LDM4MS43NUM0ODYuMjY3LDQzMi41LDQ4Ni4yNjcsNDgzLjI1LDQ3Ny4xNzQsNTE2Ljk1OEM0NjguMDgyLDU1MC42NjcsNDQ5Ljg5OCw1NjcuMzMzLDQ0MC44MDUsNTc1LjY2N0w0MzEuNzEzLDU4NCIgY2xhc3M9ImVyIHJlbGF0aW9uc2hpcExpbmUiPjwvcGF0aD48ZyB0cmFuc2Zvcm09InRyYW5zbGF0ZSgxNjkuODk5OTkzODk2NDg0MzgsMjAgKSIgaWQ9ImVudGl0eS1CRUVISVZFUy1lNTkzYTkxYy00YjkzLTVkZTktOGIzZi03ZTcxOWNiNmUyZmMiPjxyZWN0IGhlaWdodD0iMTU5LjUiIHdpZHRoPSIzNDkuNjAwMDEwODcxODg3MiIgeT0iMCIgeD0iMCIgY2xhc3M9ImVyIGVudGl0eUJveCI+PC9yZWN0Pjx0ZXh0IHRyYW5zZm9ybT0idHJhbnNsYXRlKDE3NC44MDAwMDU0MzU5NDM2LDEyLjI1KSIgc3R5bGU9ImRvbWluYW50LWJhc2VsaW5lOiBtaWRkbGU7IHRleHQtYW5jaG9yOiBtaWRkbGU7IGZvbnQtc2l6ZTogMTJweDsiIHk9IjAiIHg9IjAiIGlkPSJ0ZXh0LWVudGl0eS1CRUVISVZFUy1lNTkzYTkxYy00YjkzLTVkZTktOGIzZi03ZTcxOWNiNmUyZmMiIGNsYXNzPSJlciBlbnRpdHlMYWJlbCI+QkVFSElWRVM8L3RleHQ+PHJlY3QgaGVpZ2h0PSIyMi41IiB3aWR0aD0iNjIuNjUwMDAxNTI1ODc4OTA2IiB5PSIyNC41IiB4PSIwIiBjbGFzcz0iZXIgYXR0cmlidXRlQm94T2RkIj48L3JlY3Q+PHRleHQgdHJhbnNmb3JtPSJ0cmFuc2xhdGUoNSwzNS43NSkiIHN0eWxlPSJkb21pbmFudC1iYXNlbGluZTogbWlkZGxlOyBmb250LXNpemU6IDEwLjJweDsiIHk9IjAiIHg9IjAiIGlkPSJ0ZXh0LWVudGl0eS1CRUVISVZFUy1lNTkzYTkxYy00YjkzLTVkZTktOGIzZi03ZTcxOWNiNmUyZmMtYXR0ci0xLXR5cGUiIGNsYXNzPSJlciBlbnRpdHlMYWJlbCI+aW50PC90ZXh0PjxyZWN0IGhlaWdodD0iMjIuNSIgd2lkdGg9IjEwNi44MzMzMzU4NzY0NjQ4NCIgeT0iMjQuNSIgeD0iNjIuNjUwMDAxNTI1ODc4OTA2IiBjbGFzcz0iZXIgYXR0cmlidXRlQm94T2RkIj48L3JlY3Q+PHRleHQgdHJhbnNmb3JtPSJ0cmFuc2xhdGUoNjcuNjUwMDAxNTI1ODc4OSwzNS43NSkiIHN0eWxlPSJkb21pbmFudC1iYXNlbGluZTogbWlkZGxlOyBmb250LXNpemU6IDEwLjJweDsiIHk9IjAiIHg9IjAiIGlkPSJ0ZXh0LWVudGl0eS1CRUVISVZFUy1lNTkzYTkxYy00YjkzLTVkZTktOGIzZi03ZTcxOWNiNmUyZmMtYXR0ci0xLW5hbWUiIGNsYXNzPSJlciBlbnRpdHlMYWJlbCI+YmVlaGl2ZV9pZDwvdGV4dD48cmVjdCBoZWlnaHQ9IjIyLjUiIHdpZHRoPSIyMy41ODMzMzMwMTU0NDE4OTUiIHk9IjI0LjUiIHg9IjE2OS40ODMzMzc0MDIzNDM3NSIgY2xhc3M9ImVyIGF0dHJpYnV0ZUJveE9kZCI+PC9yZWN0Pjx0ZXh0IHRyYW5zZm9ybT0idHJhbnNsYXRlKDE3NC40ODMzMzc0MDIzNDM3NSwzNS43NSkiIHN0eWxlPSJkb21pbmFudC1iYXNlbGluZTogbWlkZGxlOyBmb250LXNpemU6IDEwLjJweDsiIHk9IjAiIHg9IjAiIGlkPSJ0ZXh0LWVudGl0eS1CRUVISVZFUy1lNTkzYTkxYy00YjkzLTVkZTktOGIzZi03ZTcxOWNiNmUyZmMtYXR0ci0xLWtleSIgY2xhc3M9ImVyIGVudGl0eUxhYmVsIj5QSzwvdGV4dD48cmVjdCBoZWlnaHQ9IjIyLjUiIHdpZHRoPSIxNTYuNTMzMzQwNDU0MTAxNTYiIHk9IjI0LjUiIHg9IjE5My4wNjY2NzA0MTc3ODU2NCIgY2xhc3M9ImVyIGF0dHJpYnV0ZUJveE9kZCI+PC9yZWN0Pjx0ZXh0IHRyYW5zZm9ybT0idHJhbnNsYXRlKDE5OC4wNjY2NzA0MTc3ODU2NCwzNS43NSkiIHN0eWxlPSJkb21pbmFudC1iYXNlbGluZTogbWlkZGxlOyBmb250LXNpemU6IDEwLjJweDsiIHk9IjAiIHg9IjAiIGlkPSJ0ZXh0LWVudGl0eS1CRUVISVZFUy1lNTkzYTkxYy00YjkzLTVkZTktOGIzZi03ZTcxOWNiNmUyZmMtYXR0ci0xLWNvbW1lbnQiIGNsYXNzPSJlciBlbnRpdHlMYWJlbCI+VW5pcXVlIElEIG9mIGVhY2ggYmVlaGl2ZTwvdGV4dD48cmVjdCBoZWlnaHQ9IjIyLjUiIHdpZHRoPSI2Mi42NTAwMDE1MjU4Nzg5MDYiIHk9IjQ3IiB4PSIwIiBjbGFzcz0iZXIgYXR0cmlidXRlQm94RXZlbiI+PC9yZWN0Pjx0ZXh0IHRyYW5zZm9ybT0idHJhbnNsYXRlKDUsNTguMjUpIiBzdHlsZT0iZG9taW5hbnQtYmFzZWxpbmU6IG1pZGRsZTsgZm9udC1zaXplOiAxMC4ycHg7IiB5PSIwIiB4PSIwIiBpZD0idGV4dC1lbnRpdHktQkVFSElWRVMtZTU5M2E5MWMtNGI5My01ZGU5LThiM2YtN2U3MTljYjZlMmZjLWF0dHItMi10eXBlIiBjbGFzcz0iZXIgZW50aXR5TGFiZWwiPnN0cmluZzwvdGV4dD48cmVjdCBoZWlnaHQ9IjIyLjUiIHdpZHRoPSIxMDYuODMzMzM1ODc2NDY0ODQiIHk9IjQ3IiB4PSI2Mi42NTAwMDE1MjU4Nzg5MDYiIGNsYXNzPSJlciBhdHRyaWJ1dGVCb3hFdmVuIj48L3JlY3Q+PHRleHQgdHJhbnNmb3JtPSJ0cmFuc2xhdGUoNjcuNjUwMDAxNTI1ODc4OSw1OC4yNSkiIHN0eWxlPSJkb21pbmFudC1iYXNlbGluZTogbWlkZGxlOyBmb250LXNpemU6IDEwLjJweDsiIHk9IjAiIHg9IjAiIGlkPSJ0ZXh0LWVudGl0eS1CRUVISVZFUy1lNTkzYTkxYy00YjkzLTVkZTktOGIzZi03ZTcxOWNiNmUyZmMtYXR0ci0yLW5hbWUiIGNsYXNzPSJlciBlbnRpdHlMYWJlbCI+bmFtZTwvdGV4dD48cmVjdCBoZWlnaHQ9IjIyLjUiIHdpZHRoPSIyMy41ODMzMzMwMTU0NDE4OTUiIHk9IjQ3IiB4PSIxNjkuNDgzMzM3NDAyMzQzNzUiIGNsYXNzPSJlciBhdHRyaWJ1dGVCb3hFdmVuIj48L3JlY3Q+PHRleHQgdHJhbnNmb3JtPSJ0cmFuc2xhdGUoMTc0LjQ4MzMzNzQwMjM0Mzc1LDU4LjI1KSIgc3R5bGU9ImRvbWluYW50LWJhc2VsaW5lOiBtaWRkbGU7IGZvbnQtc2l6ZTogMTAuMnB4OyIgeT0iMCIgeD0iMCIgaWQ9InRleHQtZW50aXR5LUJFRUhJVkVTLWU1OTNhOTFjLTRiOTMtNWRlOS04YjNmLTdlNzE5Y2I2ZTJmYy1hdHRyLTIta2V5IiBjbGFzcz0iZXIgZW50aXR5TGFiZWwiPjwvdGV4dD48cmVjdCBoZWlnaHQ9IjIyLjUiIHdpZHRoPSIxNTYuNTMzMzQwNDU0MTAxNTYiIHk9IjQ3IiB4PSIxOTMuMDY2NjcwNDE3Nzg1NjQiIGNsYXNzPSJlciBhdHRyaWJ1dGVCb3hFdmVuIj48L3JlY3Q+PHRleHQgdHJhbnNmb3JtPSJ0cmFuc2xhdGUoMTk4LjA2NjY3MDQxNzc4NTY0LDU4LjI1KSIgc3R5bGU9ImRvbWluYW50LWJhc2VsaW5lOiBtaWRkbGU7IGZvbnQtc2l6ZTogMTAuMnB4OyIgeT0iMCIgeD0iMCIgaWQ9InRleHQtZW50aXR5LUJFRUhJVkVTLWU1OTNhOTFjLTRiOTMtNWRlOS04YjNmLTdlNzE5Y2I2ZTJmYy1hdHRyLTItY29tbWVudCIgY2xhc3M9ImVyIGVudGl0eUxhYmVsIj5OYW1lIG9mIGJlZWhpdmU8L3RleHQ+PHJlY3QgaGVpZ2h0PSIyMi41IiB3aWR0aD0iNjIuNjUwMDAxNTI1ODc4OTA2IiB5PSI2OS41IiB4PSIwIiBjbGFzcz0iZXIgYXR0cmlidXRlQm94T2RkIj48L3JlY3Q+PHRleHQgdHJhbnNmb3JtPSJ0cmFuc2xhdGUoNSw4MC43NSkiIHN0eWxlPSJkb21pbmFudC1iYXNlbGluZTogbWlkZGxlOyBmb250LXNpemU6IDEwLjJweDsiIHk9IjAiIHg9IjAiIGlkPSJ0ZXh0LWVudGl0eS1CRUVISVZFUy1lNTkzYTkxYy00YjkzLTVkZTktOGIzZi03ZTcxOWNiNmUyZmMtYXR0ci0zLXR5cGUiIGNsYXNzPSJlciBlbnRpdHlMYWJlbCI+cG9pbnQ8L3RleHQ+PHJlY3QgaGVpZ2h0PSIyMi41IiB3aWR0aD0iMTA2LjgzMzMzNTg3NjQ2NDg0IiB5PSI2OS41IiB4PSI2Mi42NTAwMDE1MjU4Nzg5MDYiIGNsYXNzPSJlciBhdHRyaWJ1dGVCb3hPZGQiPjwvcmVjdD48dGV4dCB0cmFuc2Zvcm09InRyYW5zbGF0ZSg2Ny42NTAwMDE1MjU4Nzg5LDgwLjc1KSIgc3R5bGU9ImRvbWluYW50LWJhc2VsaW5lOiBtaWRkbGU7IGZvbnQtc2l6ZTogMTAuMnB4OyIgeT0iMCIgeD0iMCIgaWQ9InRleHQtZW50aXR5LUJFRUhJVkVTLWU1OTNhOTFjLTRiOTMtNWRlOS04YjNmLTdlNzE5Y2I2ZTJmYy1hdHRyLTMtbmFtZSIgY2xhc3M9ImVyIGVudGl0eUxhYmVsIj5sb2NhdGlvbjwvdGV4dD48cmVjdCBoZWlnaHQ9IjIyLjUiIHdpZHRoPSIyMy41ODMzMzMwMTU0NDE4OTUiIHk9IjY5LjUiIHg9IjE2OS40ODMzMzc0MDIzNDM3NSIgY2xhc3M9ImVyIGF0dHJpYnV0ZUJveE9kZCI+PC9yZWN0Pjx0ZXh0IHRyYW5zZm9ybT0idHJhbnNsYXRlKDE3NC40ODMzMzc0MDIzNDM3NSw4MC43NSkiIHN0eWxlPSJkb21pbmFudC1iYXNlbGluZTogbWlkZGxlOyBmb250LXNpemU6IDEwLjJweDsiIHk9IjAiIHg9IjAiIGlkPSJ0ZXh0LWVudGl0eS1CRUVISVZFUy1lNTkzYTkxYy00YjkzLTVkZTktOGIzZi03ZTcxOWNiNmUyZmMtYXR0ci0zLWtleSIgY2xhc3M9ImVyIGVudGl0eUxhYmVsIj48L3RleHQ+PHJlY3QgaGVpZ2h0PSIyMi41IiB3aWR0aD0iMTU2LjUzMzM0MDQ1NDEwMTU2IiB5PSI2OS41IiB4PSIxOTMuMDY2NjcwNDE3Nzg1NjQiIGNsYXNzPSJlciBhdHRyaWJ1dGVCb3hPZGQiPjwvcmVjdD48dGV4dCB0cmFuc2Zvcm09InRyYW5zbGF0ZSgxOTguMDY2NjcwNDE3Nzg1NjQsODAuNzUpIiBzdHlsZT0iZG9taW5hbnQtYmFzZWxpbmU6IG1pZGRsZTsgZm9udC1zaXplOiAxMC4ycHg7IiB5PSIwIiB4PSIwIiBpZD0idGV4dC1lbnRpdHktQkVFSElWRVMtZTU5M2E5MWMtNGI5My01ZGU5LThiM2YtN2U3MTljYjZlMmZjLWF0dHItMy1jb21tZW50IiBjbGFzcz0iZXIgZW50aXR5TGFiZWwiPkxvY2F0aW9uIG9mIHRoZSBiZWVoaXZlPC90ZXh0PjxyZWN0IGhlaWdodD0iMjIuNSIgd2lkdGg9IjYyLjY1MDAwMTUyNTg3ODkwNiIgeT0iOTIiIHg9IjAiIGNsYXNzPSJlciBhdHRyaWJ1dGVCb3hFdmVuIj48L3JlY3Q+PHRleHQgdHJhbnNmb3JtPSJ0cmFuc2xhdGUoNSwxMDMuMjUpIiBzdHlsZT0iZG9taW5hbnQtYmFzZWxpbmU6IG1pZGRsZTsgZm9udC1zaXplOiAxMC4ycHg7IiB5PSIwIiB4PSIwIiBpZD0idGV4dC1lbnRpdHktQkVFSElWRVMtZTU5M2E5MWMtNGI5My01ZGU5LThiM2YtN2U3MTljYjZlMmZjLWF0dHItNC10eXBlIiBjbGFzcz0iZXIgZW50aXR5TGFiZWwiPmRhdGU8L3RleHQ+PHJlY3QgaGVpZ2h0PSIyMi41IiB3aWR0aD0iMTA2LjgzMzMzNTg3NjQ2NDg0IiB5PSI5MiIgeD0iNjIuNjUwMDAxNTI1ODc4OTA2IiBjbGFzcz0iZXIgYXR0cmlidXRlQm94RXZlbiI+PC9yZWN0Pjx0ZXh0IHRyYW5zZm9ybT0idHJhbnNsYXRlKDY3LjY1MDAwMTUyNTg3ODksMTAzLjI1KSIgc3R5bGU9ImRvbWluYW50LWJhc2VsaW5lOiBtaWRkbGU7IGZvbnQtc2l6ZTogMTAuMnB4OyIgeT0iMCIgeD0iMCIgaWQ9InRleHQtZW50aXR5LUJFRUhJVkVTLWU1OTNhOTFjLTRiOTMtNWRlOS04YjNmLTdlNzE5Y2I2ZTJmYy1hdHRyLTQtbmFtZSIgY2xhc3M9ImVyIGVudGl0eUxhYmVsIj5pbnN0YWxsYXRpb25fZGF0ZTwvdGV4dD48cmVjdCBoZWlnaHQ9IjIyLjUiIHdpZHRoPSIyMy41ODMzMzMwMTU0NDE4OTUiIHk9IjkyIiB4PSIxNjkuNDgzMzM3NDAyMzQzNzUiIGNsYXNzPSJlciBhdHRyaWJ1dGVCb3hFdmVuIj48L3JlY3Q+PHRleHQgdHJhbnNmb3JtPSJ0cmFuc2xhdGUoMTc0LjQ4MzMzNzQwMjM0Mzc1LDEwMy4yNSkiIHN0eWxlPSJkb21pbmFudC1iYXNlbGluZTogbWlkZGxlOyBmb250LXNpemU6IDEwLjJweDsiIHk9IjAiIHg9IjAiIGlkPSJ0ZXh0LWVudGl0eS1CRUVISVZFUy1lNTkzYTkxYy00YjkzLTVkZTktOGIzZi03ZTcxOWNiNmUyZmMtYXR0ci00LWtleSIgY2xhc3M9ImVyIGVudGl0eUxhYmVsIj48L3RleHQ+PHJlY3QgaGVpZ2h0PSIyMi41IiB3aWR0aD0iMTU2LjUzMzM0MDQ1NDEwMTU2IiB5PSI5MiIgeD0iMTkzLjA2NjY3MDQxNzc4NTY0IiBjbGFzcz0iZXIgYXR0cmlidXRlQm94RXZlbiI+PC9yZWN0Pjx0ZXh0IHRyYW5zZm9ybT0idHJhbnNsYXRlKDE5OC4wNjY2NzA0MTc3ODU2NCwxMDMuMjUpIiBzdHlsZT0iZG9taW5hbnQtYmFzZWxpbmU6IG1pZGRsZTsgZm9udC1zaXplOiAxMC4ycHg7IiB5PSIwIiB4PSIwIiBpZD0idGV4dC1lbnRpdHktQkVFSElWRVMtZTU5M2E5MWMtNGI5My01ZGU5LThiM2YtN2U3MTljYjZlMmZjLWF0dHItNC1jb21tZW50IiBjbGFzcz0iZXIgZW50aXR5TGFiZWwiPkluc3RhbGxhdGlvbiBkYXRlIG9mIHRoZSBiZWVoaXZlPC90ZXh0PjxyZWN0IGhlaWdodD0iMjIuNSIgd2lkdGg9IjYyLjY1MDAwMTUyNTg3ODkwNiIgeT0iMTE0LjUiIHg9IjAiIGNsYXNzPSJlciBhdHRyaWJ1dGVCb3hPZGQiPjwvcmVjdD48dGV4dCB0cmFuc2Zvcm09InRyYW5zbGF0ZSg1LDEyNS43NSkiIHN0eWxlPSJkb21pbmFudC1iYXNlbGluZTogbWlkZGxlOyBmb250LXNpemU6IDEwLjJweDsiIHk9IjAiIHg9IjAiIGlkPSJ0ZXh0LWVudGl0eS1CRUVISVZFUy1lNTkzYTkxYy00YjkzLTVkZTktOGIzZi03ZTcxOWNiNmUyZmMtYXR0ci01LXR5cGUiIGNsYXNzPSJlciBlbnRpdHlMYWJlbCI+VElNRVNURU1QPC90ZXh0PjxyZWN0IGhlaWdodD0iMjIuNSIgd2lkdGg9IjEwNi44MzMzMzU4NzY0NjQ4NCIgeT0iMTE0LjUiIHg9IjYyLjY1MDAwMTUyNTg3ODkwNiIgY2xhc3M9ImVyIGF0dHJpYnV0ZUJveE9kZCI+PC9yZWN0Pjx0ZXh0IHRyYW5zZm9ybT0idHJhbnNsYXRlKDY3LjY1MDAwMTUyNTg3ODksMTI1Ljc1KSIgc3R5bGU9ImRvbWluYW50LWJhc2VsaW5lOiBtaWRkbGU7IGZvbnQtc2l6ZTogMTAuMnB4OyIgeT0iMCIgeD0iMCIgaWQ9InRleHQtZW50aXR5LUJFRUhJVkVTLWU1OTNhOTFjLTRiOTMtNWRlOS04YjNmLTdlNzE5Y2I2ZTJmYy1hdHRyLTUtbmFtZSIgY2xhc3M9ImVyIGVudGl0eUxhYmVsIj5sYXN0X2luc3BlY3Rpb25fZGF0ZTwvdGV4dD48cmVjdCBoZWlnaHQ9IjIyLjUiIHdpZHRoPSIyMy41ODMzMzMwMTU0NDE4OTUiIHk9IjExNC41IiB4PSIxNjkuNDgzMzM3NDAyMzQzNzUiIGNsYXNzPSJlciBhdHRyaWJ1dGVCb3hPZGQiPjwvcmVjdD48dGV4dCB0cmFuc2Zvcm09InRyYW5zbGF0ZSgxNzQuNDgzMzM3NDAyMzQzNzUsMTI1Ljc1KSIgc3R5bGU9ImRvbWluYW50LWJhc2VsaW5lOiBtaWRkbGU7IGZvbnQtc2l6ZTogMTAuMnB4OyIgeT0iMCIgeD0iMCIgaWQ9InRleHQtZW50aXR5LUJFRUhJVkVTLWU1OTNhOTFjLTRiOTMtNWRlOS04YjNmLTdlNzE5Y2I2ZTJmYy1hdHRyLTUta2V5IiBjbGFzcz0iZXIgZW50aXR5TGFiZWwiPjwvdGV4dD48cmVjdCBoZWlnaHQ9IjIyLjUiIHdpZHRoPSIxNTYuNTMzMzQwNDU0MTAxNTYiIHk9IjExNC41IiB4PSIxOTMuMDY2NjcwNDE3Nzg1NjQiIGNsYXNzPSJlciBhdHRyaWJ1dGVCb3hPZGQiPjwvcmVjdD48dGV4dCB0cmFuc2Zvcm09InRyYW5zbGF0ZSgxOTguMDY2NjcwNDE3Nzg1NjQsMTI1Ljc1KSIgc3R5bGU9ImRvbWluYW50LWJhc2VsaW5lOiBtaWRkbGU7IGZvbnQtc2l6ZTogMTAuMnB4OyIgeT0iMCIgeD0iMCIgaWQ9InRleHQtZW50aXR5LUJFRUhJVkVTLWU1OTNhOTFjLTRiOTMtNWRlOS04YjNmLTdlNzE5Y2I2ZTJmYy1hdHRyLTUtY29tbWVudCIgY2xhc3M9ImVyIGVudGl0eUxhYmVsIj5MYXN0IGluc3BlY3Rpb24gZGF0ZSBvZiBiZWVoaXZlPC90ZXh0PjxyZWN0IGhlaWdodD0iMjIuNSIgd2lkdGg9IjYyLjY1MDAwMTUyNTg3ODkwNiIgeT0iMTM3IiB4PSIwIiBjbGFzcz0iZXIgYXR0cmlidXRlQm94RXZlbiI+PC9yZWN0Pjx0ZXh0IHRyYW5zZm9ybT0idHJhbnNsYXRlKDUsMTQ4LjI1KSIgc3R5bGU9ImRvbWluYW50LWJhc2VsaW5lOiBtaWRkbGU7IGZvbnQtc2l6ZTogMTAuMnB4OyIgeT0iMCIgeD0iMCIgaWQ9InRleHQtZW50aXR5LUJFRUhJVkVTLWU1OTNhOTFjLTRiOTMtNWRlOS04YjNmLTdlNzE5Y2I2ZTJmYy1hdHRyLTYtdHlwZSIgY2xhc3M9ImVyIGVudGl0eUxhYmVsIj5zdHJpbmc8L3RleHQ+PHJlY3QgaGVpZ2h0PSIyMi41IiB3aWR0aD0iMTA2LjgzMzMzNTg3NjQ2NDg0IiB5PSIxMzciIHg9IjYyLjY1MDAwMTUyNTg3ODkwNiIgY2xhc3M9ImVyIGF0dHJpYnV0ZUJveEV2ZW4iPjwvcmVjdD48dGV4dCB0cmFuc2Zvcm09InRyYW5zbGF0ZSg2Ny42NTAwMDE1MjU4Nzg5LDE0OC4yNSkiIHN0eWxlPSJkb21pbmFudC1iYXNlbGluZTogbWlkZGxlOyBmb250LXNpemU6IDEwLjJweDsiIHk9IjAiIHg9IjAiIGlkPSJ0ZXh0LWVudGl0eS1CRUVISVZFUy1lNTkzYTkxYy00YjkzLTVkZTktOGIzZi03ZTcxOWNiNmUyZmMtYXR0ci02LW5hbWUiIGNsYXNzPSJlciBlbnRpdHlMYWJlbCI+bm90ZXM8L3RleHQ+PHJlY3QgaGVpZ2h0PSIyMi41IiB3aWR0aD0iMjMuNTgzMzMzMDE1NDQxODk1IiB5PSIxMzciIHg9IjE2OS40ODMzMzc0MDIzNDM3NSIgY2xhc3M9ImVyIGF0dHJpYnV0ZUJveEV2ZW4iPjwvcmVjdD48dGV4dCB0cmFuc2Zvcm09InRyYW5zbGF0ZSgxNzQuNDgzMzM3NDAyMzQzNzUsMTQ4LjI1KSIgc3R5bGU9ImRvbWluYW50LWJhc2VsaW5lOiBtaWRkbGU7IGZvbnQtc2l6ZTogMTAuMnB4OyIgeT0iMCIgeD0iMCIgaWQ9InRleHQtZW50aXR5LUJFRUhJVkVTLWU1OTNhOTFjLTRiOTMtNWRlOS04YjNmLTdlNzE5Y2I2ZTJmYy1hdHRyLTYta2V5IiBjbGFzcz0iZXIgZW50aXR5TGFiZWwiPjwvdGV4dD48cmVjdCBoZWlnaHQ9IjIyLjUiIHdpZHRoPSIxNTYuNTMzMzQwNDU0MTAxNTYiIHk9IjEzNyIgeD0iMTkzLjA2NjY3MDQxNzc4NTY0IiBjbGFzcz0iZXIgYXR0cmlidXRlQm94RXZlbiI+PC9yZWN0Pjx0ZXh0IHRyYW5zZm9ybT0idHJhbnNsYXRlKDE5OC4wNjY2NzA0MTc3ODU2NCwxNDguMjUpIiBzdHlsZT0iZG9taW5hbnQtYmFzZWxpbmU6IG1pZGRsZTsgZm9udC1zaXplOiAxMC4ycHg7IiB5PSIwIiB4PSIwIiBpZD0idGV4dC1lbnRpdHktQkVFSElWRVMtZTU5M2E5MWMtNGI5My01ZGU5LThiM2YtN2U3MTljYjZlMmZjLWF0dHItNi1jb21tZW50IiBjbGFzcz0iZXIgZW50aXR5TGFiZWwiPlNvbWUgb3B0aW9uYWwgdGV4dDwvdGV4dD48L2c+PGcgdHJhbnNmb3JtPSJ0cmFuc2xhdGUoMjAsMjc5LjUgKSIgaWQ9ImVudGl0eS1TRU5TT1JTLTdjNWI0NWM2LTJiNzktNTkwYS04Y2UyLWQ3ODcyMDE1ZTY1MiI+PHJlY3QgaGVpZ2h0PSIyMDQuNSIgd2lkdGg9IjM2Ni4yNjY2NzQ5OTU0MjIzNiIgeT0iMCIgeD0iMCIgY2xhc3M9ImVyIGVudGl0eUJveCI+PC9yZWN0Pjx0ZXh0IHRyYW5zZm9ybT0idHJhbnNsYXRlKDE4My4xMzMzMzc0OTc3MTExOCwxMi4yNSkiIHN0eWxlPSJkb21pbmFudC1iYXNlbGluZTogbWlkZGxlOyB0ZXh0LWFuY2hvcjogbWlkZGxlOyBmb250LXNpemU6IDEycHg7IiB5PSIwIiB4PSIwIiBpZD0idGV4dC1lbnRpdHktU0VOU09SUy03YzViNDVjNi0yYjc5LTU5MGEtOGNlMi1kNzg3MjAxNWU2NTIiIGNsYXNzPSJlciBlbnRpdHlMYWJlbCI+U0VOU09SUzwvdGV4dD48cmVjdCBoZWlnaHQ9IjIyLjUiIHdpZHRoPSI2Mi4yMTY2NjcxNzUyOTI5NyIgeT0iMjQuNSIgeD0iMCIgY2xhc3M9ImVyIGF0dHJpYnV0ZUJveE9kZCI+PC9yZWN0Pjx0ZXh0IHRyYW5zZm9ybT0idHJhbnNsYXRlKDUsMzUuNzUpIiBzdHlsZT0iZG9taW5hbnQtYmFzZWxpbmU6IG1pZGRsZTsgZm9udC1zaXplOiAxMC4ycHg7IiB5PSIwIiB4PSIwIiBpZD0idGV4dC1lbnRpdHktU0VOU09SUy03YzViNDVjNi0yYjc5LTU5MGEtOGNlMi1kNzg3MjAxNWU2NTItYXR0ci0xLXR5cGUiIGNsYXNzPSJlciBlbnRpdHlMYWJlbCI+aW50PC90ZXh0PjxyZWN0IGhlaWdodD0iMjIuNSIgd2lkdGg9IjEwMS44NjY2Njg3MDExNzE4OCIgeT0iMjQuNSIgeD0iNjIuMjE2NjY3MTc1MjkyOTciIGNsYXNzPSJlciBhdHRyaWJ1dGVCb3hPZGQiPjwvcmVjdD48dGV4dCB0cmFuc2Zvcm09InRyYW5zbGF0ZSg2Ny4yMTY2NjcxNzUyOTI5NywzNS43NSkiIHN0eWxlPSJkb21pbmFudC1iYXNlbGluZTogbWlkZGxlOyBmb250LXNpemU6IDEwLjJweDsiIHk9IjAiIHg9IjAiIGlkPSJ0ZXh0LWVudGl0eS1TRU5TT1JTLTdjNWI0NWM2LTJiNzktNTkwYS04Y2UyLWQ3ODcyMDE1ZTY1Mi1hdHRyLTEtbmFtZSIgY2xhc3M9ImVyIGVudGl0eUxhYmVsIj5zZW5zb3JfaWQ8L3RleHQ+PHJlY3QgaGVpZ2h0PSIyMi41IiB3aWR0aD0iMjMuNTgzMzMzMDE1NDQxODk1IiB5PSIyNC41IiB4PSIxNjQuMDgzMzM1ODc2NDY0ODQiIGNsYXNzPSJlciBhdHRyaWJ1dGVCb3hPZGQiPjwvcmVjdD48dGV4dCB0cmFuc2Zvcm09InRyYW5zbGF0ZSgxNjkuMDgzMzM1ODc2NDY0ODQsMzUuNzUpIiBzdHlsZT0iZG9taW5hbnQtYmFzZWxpbmU6IG1pZGRsZTsgZm9udC1zaXplOiAxMC4ycHg7IiB5PSIwIiB4PSIwIiBpZD0idGV4dC1lbnRpdHktU0VOU09SUy03YzViNDVjNi0yYjc5LTU5MGEtOGNlMi1kNzg3MjAxNWU2NTItYXR0ci0xLWtleSIgY2xhc3M9ImVyIGVudGl0eUxhYmVsIj5QSzwvdGV4dD48cmVjdCBoZWlnaHQ9IjIyLjUiIHdpZHRoPSIxNzguNjAwMDA2MTAzNTE1NjIiIHk9IjI0LjUiIHg9IjE4Ny42NjY2Njg4OTE5MDY3NCIgY2xhc3M9ImVyIGF0dHJpYnV0ZUJveE9kZCI+PC9yZWN0Pjx0ZXh0IHRyYW5zZm9ybT0idHJhbnNsYXRlKDE5Mi42NjY2Njg4OTE5MDY3NCwzNS43NSkiIHN0eWxlPSJkb21pbmFudC1iYXNlbGluZTogbWlkZGxlOyBmb250LXNpemU6IDEwLjJweDsiIHk9IjAiIHg9IjAiIGlkPSJ0ZXh0LWVudGl0eS1TRU5TT1JTLTdjNWI0NWM2LTJiNzktNTkwYS04Y2UyLWQ3ODcyMDE1ZTY1Mi1hdHRyLTEtY29tbWVudCIgY2xhc3M9ImVyIGVudGl0eUxhYmVsIj5VbmlxdWUgSUQgZm9yIGVhY2ggc2Vuc29yPC90ZXh0PjxyZWN0IGhlaWdodD0iMjIuNSIgd2lkdGg9IjYyLjIxNjY2NzE3NTI5Mjk3IiB5PSI0NyIgeD0iMCIgY2xhc3M9ImVyIGF0dHJpYnV0ZUJveEV2ZW4iPjwvcmVjdD48dGV4dCB0cmFuc2Zvcm09InRyYW5zbGF0ZSg1LDU4LjI1KSIgc3R5bGU9ImRvbWluYW50LWJhc2VsaW5lOiBtaWRkbGU7IGZvbnQtc2l6ZTogMTAuMnB4OyIgeT0iMCIgeD0iMCIgaWQ9InRleHQtZW50aXR5LVNFTlNPUlMtN2M1YjQ1YzYtMmI3OS01OTBhLThjZTItZDc4NzIwMTVlNjUyLWF0dHItMi10eXBlIiBjbGFzcz0iZXIgZW50aXR5TGFiZWwiPmludDwvdGV4dD48cmVjdCBoZWlnaHQ9IjIyLjUiIHdpZHRoPSIxMDEuODY2NjY4NzAxMTcxODgiIHk9IjQ3IiB4PSI2Mi4yMTY2NjcxNzUyOTI5NyIgY2xhc3M9ImVyIGF0dHJpYnV0ZUJveEV2ZW4iPjwvcmVjdD48dGV4dCB0cmFuc2Zvcm09InRyYW5zbGF0ZSg2Ny4yMTY2NjcxNzUyOTI5Nyw1OC4yNSkiIHN0eWxlPSJkb21pbmFudC1iYXNlbGluZTogbWlkZGxlOyBmb250LXNpemU6IDEwLjJweDsiIHk9IjAiIHg9IjAiIGlkPSJ0ZXh0LWVudGl0eS1TRU5TT1JTLTdjNWI0NWM2LTJiNzktNTkwYS04Y2UyLWQ3ODcyMDE1ZTY1Mi1hdHRyLTItbmFtZSIgY2xhc3M9ImVyIGVudGl0eUxhYmVsIj5iZWVoaXZlX2lkPC90ZXh0PjxyZWN0IGhlaWdodD0iMjIuNSIgd2lkdGg9IjIzLjU4MzMzMzAxNTQ0MTg5NSIgeT0iNDciIHg9IjE2NC4wODMzMzU4NzY0NjQ4NCIgY2xhc3M9ImVyIGF0dHJpYnV0ZUJveEV2ZW4iPjwvcmVjdD48dGV4dCB0cmFuc2Zvcm09InRyYW5zbGF0ZSgxNjkuMDgzMzM1ODc2NDY0ODQsNTguMjUpIiBzdHlsZT0iZG9taW5hbnQtYmFzZWxpbmU6IG1pZGRsZTsgZm9udC1zaXplOiAxMC4ycHg7IiB5PSIwIiB4PSIwIiBpZD0idGV4dC1lbnRpdHktU0VOU09SUy03YzViNDVjNi0yYjc5LTU5MGEtOGNlMi1kNzg3MjAxNWU2NTItYXR0ci0yLWtleSIgY2xhc3M9ImVyIGVudGl0eUxhYmVsIj5GSzwvdGV4dD48cmVjdCBoZWlnaHQ9IjIyLjUiIHdpZHRoPSIxNzguNjAwMDA2MTAzNTE1NjIiIHk9IjQ3IiB4PSIxODcuNjY2NjY4ODkxOTA2NzQiIGNsYXNzPSJlciBhdHRyaWJ1dGVCb3hFdmVuIj48L3JlY3Q+PHRleHQgdHJhbnNmb3JtPSJ0cmFuc2xhdGUoMTkyLjY2NjY2ODg5MTkwNjc0LDU4LjI1KSIgc3R5bGU9ImRvbWluYW50LWJhc2VsaW5lOiBtaWRkbGU7IGZvbnQtc2l6ZTogMTAuMnB4OyIgeT0iMCIgeD0iMCIgaWQ9InRleHQtZW50aXR5LVNFTlNPUlMtN2M1YjQ1YzYtMmI3OS01OTBhLThjZTItZDc4NzIwMTVlNjUyLWF0dHItMi1jb21tZW50IiBjbGFzcz0iZXIgZW50aXR5TGFiZWwiPlJlZmVyZW5jZXMgQkVFSElWRV9JRDwvdGV4dD48cmVjdCBoZWlnaHQ9IjIyLjUiIHdpZHRoPSI2Mi4yMTY2NjcxNzUyOTI5NyIgeT0iNjkuNSIgeD0iMCIgY2xhc3M9ImVyIGF0dHJpYnV0ZUJveE9kZCI+PC9yZWN0Pjx0ZXh0IHRyYW5zZm9ybT0idHJhbnNsYXRlKDUsODAuNzUpIiBzdHlsZT0iZG9taW5hbnQtYmFzZWxpbmU6IG1pZGRsZTsgZm9udC1zaXplOiAxMC4ycHg7IiB5PSIwIiB4PSIwIiBpZD0idGV4dC1lbnRpdHktU0VOU09SUy03YzViNDVjNi0yYjc5LTU5MGEtOGNlMi1kNzg3MjAxNWU2NTItYXR0ci0zLXR5cGUiIGNsYXNzPSJlciBlbnRpdHlMYWJlbCI+c3Rpcm5nPC90ZXh0PjxyZWN0IGhlaWdodD0iMjIuNSIgd2lkdGg9IjEwMS44NjY2Njg3MDExNzE4OCIgeT0iNjkuNSIgeD0iNjIuMjE2NjY3MTc1MjkyOTciIGNsYXNzPSJlciBhdHRyaWJ1dGVCb3hPZGQiPjwvcmVjdD48dGV4dCB0cmFuc2Zvcm09InRyYW5zbGF0ZSg2Ny4yMTY2NjcxNzUyOTI5Nyw4MC43NSkiIHN0eWxlPSJkb21pbmFudC1iYXNlbGluZTogbWlkZGxlOyBmb250LXNpemU6IDEwLjJweDsiIHk9IjAiIHg9IjAiIGlkPSJ0ZXh0LWVudGl0eS1TRU5TT1JTLTdjNWI0NWM2LTJiNzktNTkwYS04Y2UyLWQ3ODcyMDE1ZTY1Mi1hdHRyLTMtbmFtZSIgY2xhc3M9ImVyIGVudGl0eUxhYmVsIj5zZW5zb3JfdHlwZTwvdGV4dD48cmVjdCBoZWlnaHQ9IjIyLjUiIHdpZHRoPSIyMy41ODMzMzMwMTU0NDE4OTUiIHk9IjY5LjUiIHg9IjE2NC4wODMzMzU4NzY0NjQ4NCIgY2xhc3M9ImVyIGF0dHJpYnV0ZUJveE9kZCI+PC9yZWN0Pjx0ZXh0IHRyYW5zZm9ybT0idHJhbnNsYXRlKDE2OS4wODMzMzU4NzY0NjQ4NCw4MC43NSkiIHN0eWxlPSJkb21pbmFudC1iYXNlbGluZTogbWlkZGxlOyBmb250LXNpemU6IDEwLjJweDsiIHk9IjAiIHg9IjAiIGlkPSJ0ZXh0LWVudGl0eS1TRU5TT1JTLTdjNWI0NWM2LTJiNzktNTkwYS04Y2UyLWQ3ODcyMDE1ZTY1Mi1hdHRyLTMta2V5IiBjbGFzcz0iZXIgZW50aXR5TGFiZWwiPjwvdGV4dD48cmVjdCBoZWlnaHQ9IjIyLjUiIHdpZHRoPSIxNzguNjAwMDA2MTAzNTE1NjIiIHk9IjY5LjUiIHg9IjE4Ny42NjY2Njg4OTE5MDY3NCIgY2xhc3M9ImVyIGF0dHJpYnV0ZUJveE9kZCI+PC9yZWN0Pjx0ZXh0IHRyYW5zZm9ybT0idHJhbnNsYXRlKDE5Mi42NjY2Njg4OTE5MDY3NCw4MC43NSkiIHN0eWxlPSJkb21pbmFudC1iYXNlbGluZTogbWlkZGxlOyBmb250LXNpemU6IDEwLjJweDsiIHk9IjAiIHg9IjAiIGlkPSJ0ZXh0LWVudGl0eS1TRU5TT1JTLTdjNWI0NWM2LTJiNzktNTkwYS04Y2UyLWQ3ODcyMDE1ZTY1Mi1hdHRyLTMtY29tbWVudCIgY2xhc3M9ImVyIGVudGl0eUxhYmVsIj5TZW5zb3IgdHlwZSBuYW1lPC90ZXh0PjxyZWN0IGhlaWdodD0iMjIuNSIgd2lkdGg9IjYyLjIxNjY2NzE3NTI5Mjk3IiB5PSI5MiIgeD0iMCIgY2xhc3M9ImVyIGF0dHJpYnV0ZUJveEV2ZW4iPjwvcmVjdD48dGV4dCB0cmFuc2Zvcm09InRyYW5zbGF0ZSg1LDEwMy4yNSkiIHN0eWxlPSJkb21pbmFudC1iYXNlbGluZTogbWlkZGxlOyBmb250LXNpemU6IDEwLjJweDsiIHk9IjAiIHg9IjAiIGlkPSJ0ZXh0LWVudGl0eS1TRU5TT1JTLTdjNWI0NWM2LTJiNzktNTkwYS04Y2UyLWQ3ODcyMDE1ZTY1Mi1hdHRyLTQtdHlwZSIgY2xhc3M9ImVyIGVudGl0eUxhYmVsIj5zdHJpbmc8L3RleHQ+PHJlY3QgaGVpZ2h0PSIyMi41IiB3aWR0aD0iMTAxLjg2NjY2ODcwMTE3MTg4IiB5PSI5MiIgeD0iNjIuMjE2NjY3MTc1MjkyOTciIGNsYXNzPSJlciBhdHRyaWJ1dGVCb3hFdmVuIj48L3JlY3Q+PHRleHQgdHJhbnNmb3JtPSJ0cmFuc2xhdGUoNjcuMjE2NjY3MTc1MjkyOTcsMTAzLjI1KSIgc3R5bGU9ImRvbWluYW50LWJhc2VsaW5lOiBtaWRkbGU7IGZvbnQtc2l6ZTogMTAuMnB4OyIgeT0iMCIgeD0iMCIgaWQ9InRleHQtZW50aXR5LVNFTlNPUlMtN2M1YjQ1YzYtMmI3OS01OTBhLThjZTItZDc4NzIwMTVlNjUyLWF0dHItNC1uYW1lIiBjbGFzcz0iZXIgZW50aXR5TGFiZWwiPnNlbnNvcl9uYW1lPC90ZXh0PjxyZWN0IGhlaWdodD0iMjIuNSIgd2lkdGg9IjIzLjU4MzMzMzAxNTQ0MTg5NSIgeT0iOTIiIHg9IjE2NC4wODMzMzU4NzY0NjQ4NCIgY2xhc3M9ImVyIGF0dHJpYnV0ZUJveEV2ZW4iPjwvcmVjdD48dGV4dCB0cmFuc2Zvcm09InRyYW5zbGF0ZSgxNjkuMDgzMzM1ODc2NDY0ODQsMTAzLjI1KSIgc3R5bGU9ImRvbWluYW50LWJhc2VsaW5lOiBtaWRkbGU7IGZvbnQtc2l6ZTogMTAuMnB4OyIgeT0iMCIgeD0iMCIgaWQ9InRleHQtZW50aXR5LVNFTlNPUlMtN2M1YjQ1YzYtMmI3OS01OTBhLThjZTItZDc4NzIwMTVlNjUyLWF0dHItNC1rZXkiIGNsYXNzPSJlciBlbnRpdHlMYWJlbCI+PC90ZXh0PjxyZWN0IGhlaWdodD0iMjIuNSIgd2lkdGg9IjE3OC42MDAwMDYxMDM1MTU2MiIgeT0iOTIiIHg9IjE4Ny42NjY2Njg4OTE5MDY3NCIgY2xhc3M9ImVyIGF0dHJpYnV0ZUJveEV2ZW4iPjwvcmVjdD48dGV4dCB0cmFuc2Zvcm09InRyYW5zbGF0ZSgxOTIuNjY2NjY4ODkxOTA2NzQsMTAzLjI1KSIgc3R5bGU9ImRvbWluYW50LWJhc2VsaW5lOiBtaWRkbGU7IGZvbnQtc2l6ZTogMTAuMnB4OyIgeT0iMCIgeD0iMCIgaWQ9InRleHQtZW50aXR5LVNFTlNPUlMtN2M1YjQ1YzYtMmI3OS01OTBhLThjZTItZDc4NzIwMTVlNjUyLWF0dHItNC1jb21tZW50IiBjbGFzcz0iZXIgZW50aXR5TGFiZWwiPk5hbWUgb2YgdGhlIHNlbnNvcjwvdGV4dD48cmVjdCBoZWlnaHQ9IjIyLjUiIHdpZHRoPSI2Mi4yMTY2NjcxNzUyOTI5NyIgeT0iMTE0LjUiIHg9IjAiIGNsYXNzPSJlciBhdHRyaWJ1dGVCb3hPZGQiPjwvcmVjdD48dGV4dCB0cmFuc2Zvcm09InRyYW5zbGF0ZSg1LDEyNS43NSkiIHN0eWxlPSJkb21pbmFudC1iYXNlbGluZTogbWlkZGxlOyBmb250LXNpemU6IDEwLjJweDsiIHk9IjAiIHg9IjAiIGlkPSJ0ZXh0LWVudGl0eS1TRU5TT1JTLTdjNWI0NWM2LTJiNzktNTkwYS04Y2UyLWQ3ODcyMDE1ZTY1Mi1hdHRyLTUtdHlwZSIgY2xhc3M9ImVyIGVudGl0eUxhYmVsIj5zdHJpbmdBcnJheTwvdGV4dD48cmVjdCBoZWlnaHQ9IjIyLjUiIHdpZHRoPSIxMDEuODY2NjY4NzAxMTcxODgiIHk9IjExNC41IiB4PSI2Mi4yMTY2NjcxNzUyOTI5NyIgY2xhc3M9ImVyIGF0dHJpYnV0ZUJveE9kZCI+PC9yZWN0Pjx0ZXh0IHRyYW5zZm9ybT0idHJhbnNsYXRlKDY3LjIxNjY2NzE3NTI5Mjk3LDEyNS43NSkiIHN0eWxlPSJkb21pbmFudC1iYXNlbGluZTogbWlkZGxlOyBmb250LXNpemU6IDEwLjJweDsiIHk9IjAiIHg9IjAiIGlkPSJ0ZXh0LWVudGl0eS1TRU5TT1JTLTdjNWI0NWM2LTJiNzktNTkwYS04Y2UyLWQ3ODcyMDE1ZTY1Mi1hdHRyLTUtbmFtZSIgY2xhc3M9ImVyIGVudGl0eUxhYmVsIj5tZWFzdXJlbWVudF91bml0czwvdGV4dD48cmVjdCBoZWlnaHQ9IjIyLjUiIHdpZHRoPSIyMy41ODMzMzMwMTU0NDE4OTUiIHk9IjExNC41IiB4PSIxNjQuMDgzMzM1ODc2NDY0ODQiIGNsYXNzPSJlciBhdHRyaWJ1dGVCb3hPZGQiPjwvcmVjdD48dGV4dCB0cmFuc2Zvcm09InRyYW5zbGF0ZSgxNjkuMDgzMzM1ODc2NDY0ODQsMTI1Ljc1KSIgc3R5bGU9ImRvbWluYW50LWJhc2VsaW5lOiBtaWRkbGU7IGZvbnQtc2l6ZTogMTAuMnB4OyIgeT0iMCIgeD0iMCIgaWQ9InRleHQtZW50aXR5LVNFTlNPUlMtN2M1YjQ1YzYtMmI3OS01OTBhLThjZTItZDc4NzIwMTVlNjUyLWF0dHItNS1rZXkiIGNsYXNzPSJlciBlbnRpdHlMYWJlbCI+PC90ZXh0PjxyZWN0IGhlaWdodD0iMjIuNSIgd2lkdGg9IjE3OC42MDAwMDYxMDM1MTU2MiIgeT0iMTE0LjUiIHg9IjE4Ny42NjY2Njg4OTE5MDY3NCIgY2xhc3M9ImVyIGF0dHJpYnV0ZUJveE9kZCI+PC9yZWN0Pjx0ZXh0IHRyYW5zZm9ybT0idHJhbnNsYXRlKDE5Mi42NjY2Njg4OTE5MDY3NCwxMjUuNzUpIiBzdHlsZT0iZG9taW5hbnQtYmFzZWxpbmU6IG1pZGRsZTsgZm9udC1zaXplOiAxMC4ycHg7IiB5PSIwIiB4PSIwIiBpZD0idGV4dC1lbnRpdHktU0VOU09SUy03YzViNDVjNi0yYjc5LTU5MGEtOGNlMi1kNzg3MjAxNWU2NTItYXR0ci01LWNvbW1lbnQiIGNsYXNzPSJlciBlbnRpdHlMYWJlbCI+QWxsIG1lYXN1cmVtZW50IHVuaXRzIG9mIHRoaXMgc2Vuc29yPC90ZXh0PjxyZWN0IGhlaWdodD0iMjIuNSIgd2lkdGg9IjYyLjIxNjY2NzE3NTI5Mjk3IiB5PSIxMzciIHg9IjAiIGNsYXNzPSJlciBhdHRyaWJ1dGVCb3hFdmVuIj48L3JlY3Q+PHRleHQgdHJhbnNmb3JtPSJ0cmFuc2xhdGUoNSwxNDguMjUpIiBzdHlsZT0iZG9taW5hbnQtYmFzZWxpbmU6IG1pZGRsZTsgZm9udC1zaXplOiAxMC4ycHg7IiB5PSIwIiB4PSIwIiBpZD0idGV4dC1lbnRpdHktU0VOU09SUy03YzViNDVjNi0yYjc5LTU5MGEtOGNlMi1kNzg3MjAxNWU2NTItYXR0ci02LXR5cGUiIGNsYXNzPSJlciBlbnRpdHlMYWJlbCI+REFURTwvdGV4dD48cmVjdCBoZWlnaHQ9IjIyLjUiIHdpZHRoPSIxMDEuODY2NjY4NzAxMTcxODgiIHk9IjEzNyIgeD0iNjIuMjE2NjY3MTc1MjkyOTciIGNsYXNzPSJlciBhdHRyaWJ1dGVCb3hFdmVuIj48L3JlY3Q+PHRleHQgdHJhbnNmb3JtPSJ0cmFuc2xhdGUoNjcuMjE2NjY3MTc1MjkyOTcsMTQ4LjI1KSIgc3R5bGU9ImRvbWluYW50LWJhc2VsaW5lOiBtaWRkbGU7IGZvbnQtc2l6ZTogMTAuMnB4OyIgeT0iMCIgeD0iMCIgaWQ9InRleHQtZW50aXR5LVNFTlNPUlMtN2M1YjQ1YzYtMmI3OS01OTBhLThjZTItZDc4NzIwMTVlNjUyLWF0dHItNi1uYW1lIiBjbGFzcz0iZXIgZW50aXR5TGFiZWwiPmluc3RhbGxhdGlvbl9kYXRlPC90ZXh0PjxyZWN0IGhlaWdodD0iMjIuNSIgd2lkdGg9IjIzLjU4MzMzMzAxNTQ0MTg5NSIgeT0iMTM3IiB4PSIxNjQuMDgzMzM1ODc2NDY0ODQiIGNsYXNzPSJlciBhdHRyaWJ1dGVCb3hFdmVuIj48L3JlY3Q+PHRleHQgdHJhbnNmb3JtPSJ0cmFuc2xhdGUoMTY5LjA4MzMzNTg3NjQ2NDg0LDE0OC4yNSkiIHN0eWxlPSJkb21pbmFudC1iYXNlbGluZTogbWlkZGxlOyBmb250LXNpemU6IDEwLjJweDsiIHk9IjAiIHg9IjAiIGlkPSJ0ZXh0LWVudGl0eS1TRU5TT1JTLTdjNWI0NWM2LTJiNzktNTkwYS04Y2UyLWQ3ODcyMDE1ZTY1Mi1hdHRyLTYta2V5IiBjbGFzcz0iZXIgZW50aXR5TGFiZWwiPjwvdGV4dD48cmVjdCBoZWlnaHQ9IjIyLjUiIHdpZHRoPSIxNzguNjAwMDA2MTAzNTE1NjIiIHk9IjEzNyIgeD0iMTg3LjY2NjY2ODg5MTkwNjc0IiBjbGFzcz0iZXIgYXR0cmlidXRlQm94RXZlbiI+PC9yZWN0Pjx0ZXh0IHRyYW5zZm9ybT0idHJhbnNsYXRlKDE5Mi42NjY2Njg4OTE5MDY3NCwxNDguMjUpIiBzdHlsZT0iZG9taW5hbnQtYmFzZWxpbmU6IG1pZGRsZTsgZm9udC1zaXplOiAxMC4ycHg7IiB5PSIwIiB4PSIwIiBpZD0idGV4dC1lbnRpdHktU0VOU09SUy03YzViNDVjNi0yYjc5LTU5MGEtOGNlMi1kNzg3MjAxNWU2NTItYXR0ci02LWNvbW1lbnQiIGNsYXNzPSJlciBlbnRpdHlMYWJlbCI+SW5zdGFsbGF0aW9uIGRhdGUgb2Ygc2Vuc29yPC90ZXh0PjxyZWN0IGhlaWdodD0iMjIuNSIgd2lkdGg9IjYyLjIxNjY2NzE3NTI5Mjk3IiB5PSIxNTkuNSIgeD0iMCIgY2xhc3M9ImVyIGF0dHJpYnV0ZUJveE9kZCI+PC9yZWN0Pjx0ZXh0IHRyYW5zZm9ybT0idHJhbnNsYXRlKDUsMTcwLjc1KSIgc3R5bGU9ImRvbWluYW50LWJhc2VsaW5lOiBtaWRkbGU7IGZvbnQtc2l6ZTogMTAuMnB4OyIgeT0iMCIgeD0iMCIgaWQ9InRleHQtZW50aXR5LVNFTlNPUlMtN2M1YjQ1YzYtMmI3OS01OTBhLThjZTItZDc4NzIwMTVlNjUyLWF0dHItNy10eXBlIiBjbGFzcz0iZXIgZW50aXR5TGFiZWwiPlRJTUVTVEFNUDwvdGV4dD48cmVjdCBoZWlnaHQ9IjIyLjUiIHdpZHRoPSIxMDEuODY2NjY4NzAxMTcxODgiIHk9IjE1OS41IiB4PSI2Mi4yMTY2NjcxNzUyOTI5NyIgY2xhc3M9ImVyIGF0dHJpYnV0ZUJveE9kZCI+PC9yZWN0Pjx0ZXh0IHRyYW5zZm9ybT0idHJhbnNsYXRlKDY3LjIxNjY2NzE3NTI5Mjk3LDE3MC43NSkiIHN0eWxlPSJkb21pbmFudC1iYXNlbGluZTogbWlkZGxlOyBmb250LXNpemU6IDEwLjJweDsiIHk9IjAiIHg9IjAiIGlkPSJ0ZXh0LWVudGl0eS1TRU5TT1JTLTdjNWI0NWM2LTJiNzktNTkwYS04Y2UyLWQ3ODcyMDE1ZTY1Mi1hdHRyLTctbmFtZSIgY2xhc3M9ImVyIGVudGl0eUxhYmVsIj5sYXN0X3NlZW48L3RleHQ+PHJlY3QgaGVpZ2h0PSIyMi41IiB3aWR0aD0iMjMuNTgzMzMzMDE1NDQxODk1IiB5PSIxNTkuNSIgeD0iMTY0LjA4MzMzNTg3NjQ2NDg0IiBjbGFzcz0iZXIgYXR0cmlidXRlQm94T2RkIj48L3JlY3Q+PHRleHQgdHJhbnNmb3JtPSJ0cmFuc2xhdGUoMTY5LjA4MzMzNTg3NjQ2NDg0LDE3MC43NSkiIHN0eWxlPSJkb21pbmFudC1iYXNlbGluZTogbWlkZGxlOyBmb250LXNpemU6IDEwLjJweDsiIHk9IjAiIHg9IjAiIGlkPSJ0ZXh0LWVudGl0eS1TRU5TT1JTLTdjNWI0NWM2LTJiNzktNTkwYS04Y2UyLWQ3ODcyMDE1ZTY1Mi1hdHRyLTcta2V5IiBjbGFzcz0iZXIgZW50aXR5TGFiZWwiPjwvdGV4dD48cmVjdCBoZWlnaHQ9IjIyLjUiIHdpZHRoPSIxNzguNjAwMDA2MTAzNTE1NjIiIHk9IjE1OS41IiB4PSIxODcuNjY2NjY4ODkxOTA2NzQiIGNsYXNzPSJlciBhdHRyaWJ1dGVCb3hPZGQiPjwvcmVjdD48dGV4dCB0cmFuc2Zvcm09InRyYW5zbGF0ZSgxOTIuNjY2NjY4ODkxOTA2NzQsMTcwLjc1KSIgc3R5bGU9ImRvbWluYW50LWJhc2VsaW5lOiBtaWRkbGU7IGZvbnQtc2l6ZTogMTAuMnB4OyIgeT0iMCIgeD0iMCIgaWQ9InRleHQtZW50aXR5LVNFTlNPUlMtN2M1YjQ1YzYtMmI3OS01OTBhLThjZTItZDc4NzIwMTVlNjUyLWF0dHItNy1jb21tZW50IiBjbGFzcz0iZXIgZW50aXR5TGFiZWwiPkxhc3QgdGltZSB0aGUgc2Vuc29yIHNlbmQgdmFsdWVzPC90ZXh0PjxyZWN0IGhlaWdodD0iMjIuNSIgd2lkdGg9IjYyLjIxNjY2NzE3NTI5Mjk3IiB5PSIxODIiIHg9IjAiIGNsYXNzPSJlciBhdHRyaWJ1dGVCb3hFdmVuIj48L3JlY3Q+PHRleHQgdHJhbnNmb3JtPSJ0cmFuc2xhdGUoNSwxOTMuMjUpIiBzdHlsZT0iZG9taW5hbnQtYmFzZWxpbmU6IG1pZGRsZTsgZm9udC1zaXplOiAxMC4ycHg7IiB5PSIwIiB4PSIwIiBpZD0idGV4dC1lbnRpdHktU0VOU09SUy03YzViNDVjNi0yYjc5LTU5MGEtOGNlMi1kNzg3MjAxNWU2NTItYXR0ci04LXR5cGUiIGNsYXNzPSJlciBlbnRpdHlMYWJlbCI+Qk9PTEVBTjwvdGV4dD48cmVjdCBoZWlnaHQ9IjIyLjUiIHdpZHRoPSIxMDEuODY2NjY4NzAxMTcxODgiIHk9IjE4MiIgeD0iNjIuMjE2NjY3MTc1MjkyOTciIGNsYXNzPSJlciBhdHRyaWJ1dGVCb3hFdmVuIj48L3JlY3Q+PHRleHQgdHJhbnNmb3JtPSJ0cmFuc2xhdGUoNjcuMjE2NjY3MTc1MjkyOTcsMTkzLjI1KSIgc3R5bGU9ImRvbWluYW50LWJhc2VsaW5lOiBtaWRkbGU7IGZvbnQtc2l6ZTogMTAuMnB4OyIgeT0iMCIgeD0iMCIgaWQ9InRleHQtZW50aXR5LVNFTlNPUlMtN2M1YjQ1YzYtMmI3OS01OTBhLThjZTItZDc4NzIwMTVlNjUyLWF0dHItOC1uYW1lIiBjbGFzcz0iZXIgZW50aXR5TGFiZWwiPmlzX2FjdGl2ZTwvdGV4dD48cmVjdCBoZWlnaHQ9IjIyLjUiIHdpZHRoPSIyMy41ODMzMzMwMTU0NDE4OTUiIHk9IjE4MiIgeD0iMTY0LjA4MzMzNTg3NjQ2NDg0IiBjbGFzcz0iZXIgYXR0cmlidXRlQm94RXZlbiI+PC9yZWN0Pjx0ZXh0IHRyYW5zZm9ybT0idHJhbnNsYXRlKDE2OS4wODMzMzU4NzY0NjQ4NCwxOTMuMjUpIiBzdHlsZT0iZG9taW5hbnQtYmFzZWxpbmU6IG1pZGRsZTsgZm9udC1zaXplOiAxMC4ycHg7IiB5PSIwIiB4PSIwIiBpZD0idGV4dC1lbnRpdHktU0VOU09SUy03YzViNDVjNi0yYjc5LTU5MGEtOGNlMi1kNzg3MjAxNWU2NTItYXR0ci04LWtleSIgY2xhc3M9ImVyIGVudGl0eUxhYmVsIj48L3RleHQ+PHJlY3QgaGVpZ2h0PSIyMi41IiB3aWR0aD0iMTc4LjYwMDAwNjEwMzUxNTYyIiB5PSIxODIiIHg9IjE4Ny42NjY2Njg4OTE5MDY3NCIgY2xhc3M9ImVyIGF0dHJpYnV0ZUJveEV2ZW4iPjwvcmVjdD48dGV4dCB0cmFuc2Zvcm09InRyYW5zbGF0ZSgxOTIuNjY2NjY4ODkxOTA2NzQsMTkzLjI1KSIgc3R5bGU9ImRvbWluYW50LWJhc2VsaW5lOiBtaWRkbGU7IGZvbnQtc2l6ZTogMTAuMnB4OyIgeT0iMCIgeD0iMCIgaWQ9InRleHQtZW50aXR5LVNFTlNPUlMtN2M1YjQ1YzYtMmI3OS01OTBhLThjZTItZDc4NzIwMTVlNjUyLWF0dHItOC1jb21tZW50IiBjbGFzcz0iZXIgZW50aXR5TGFiZWwiPkZsYWcgaWYgc2Vuc29yIGlzIGFjdGl2ZTwvdGV4dD48L2c+PGcgdHJhbnNmb3JtPSJ0cmFuc2xhdGUoMTMxLjkxNjY1NjQ5NDE0MDYyLDU4NCApIiBpZD0iZW50aXR5LURBVEEtMzUxZTE1MjgtYTg3MC01MmQ4LTk3N2EtM2I3NzhiNjI0YTJmIj48cmVjdCBoZWlnaHQ9IjE1OS41IiB3aWR0aD0iNDI1LjU2NjY2NjYwMzA4ODQiIHk9IjAiIHg9IjAiIGNsYXNzPSJlciBlbnRpdHlCb3giPjwvcmVjdD48dGV4dCB0cmFuc2Zvcm09InRyYW5zbGF0ZSgyMTIuNzgzMzMzMzAxNTQ0MiwxMi4yNSkiIHN0eWxlPSJkb21pbmFudC1iYXNlbGluZTogbWlkZGxlOyB0ZXh0LWFuY2hvcjogbWlkZGxlOyBmb250LXNpemU6IDEycHg7IiB5PSIwIiB4PSIwIiBpZD0idGV4dC1lbnRpdHktREFUQS0zNTFlMTUyOC1hODcwLTUyZDgtOTc3YS0zYjc3OGI2MjRhMmYiIGNsYXNzPSJlciBlbnRpdHlMYWJlbCI+REFUQTwvdGV4dD48cmVjdCBoZWlnaHQ9IjIyLjUiIHdpZHRoPSI2MC43MDAwMDA3NjI5Mzk0NSIgeT0iMjQuNSIgeD0iMCIgY2xhc3M9ImVyIGF0dHJpYnV0ZUJveE9kZCI+PC9yZWN0Pjx0ZXh0IHRyYW5zZm9ybT0idHJhbnNsYXRlKDUsMzUuNzUpIiBzdHlsZT0iZG9taW5hbnQtYmFzZWxpbmU6IG1pZGRsZTsgZm9udC1zaXplOiAxMC4ycHg7IiB5PSIwIiB4PSIwIiBpZD0idGV4dC1lbnRpdHktREFUQS0zNTFlMTUyOC1hODcwLTUyZDgtOTc3YS0zYjc3OGI2MjRhMmYtYXR0ci0xLXR5cGUiIGNsYXNzPSJlciBlbnRpdHlMYWJlbCI+aW50PC90ZXh0PjxyZWN0IGhlaWdodD0iMjIuNSIgd2lkdGg9Ijk3LjczMzMyOTc3Mjk0OTIyIiB5PSIyNC41IiB4PSI2MC43MDAwMDA3NjI5Mzk0NSIgY2xhc3M9ImVyIGF0dHJpYnV0ZUJveE9kZCI+PC9yZWN0Pjx0ZXh0IHRyYW5zZm9ybT0idHJhbnNsYXRlKDY1LjcwMDAwMDc2MjkzOTQ1LDM1Ljc1KSIgc3R5bGU9ImRvbWluYW50LWJhc2VsaW5lOiBtaWRkbGU7IGZvbnQtc2l6ZTogMTAuMnB4OyIgeT0iMCIgeD0iMCIgaWQ9InRleHQtZW50aXR5LURBVEEtMzUxZTE1MjgtYTg3MC01MmQ4LTk3N2EtM2I3NzhiNjI0YTJmLWF0dHItMS1uYW1lIiBjbGFzcz0iZXIgZW50aXR5TGFiZWwiPnJlYWRpbmdfaWQ8L3RleHQ+PHJlY3QgaGVpZ2h0PSIyMi41IiB3aWR0aD0iMjMuNTgzMzMzMDE1NDQxODk1IiB5PSIyNC41IiB4PSIxNTguNDMzMzMwNTM1ODg4NjciIGNsYXNzPSJlciBhdHRyaWJ1dGVCb3hPZGQiPjwvcmVjdD48dGV4dCB0cmFuc2Zvcm09InRyYW5zbGF0ZSgxNjMuNDMzMzMwNTM1ODg4NjcsMzUuNzUpIiBzdHlsZT0iZG9taW5hbnQtYmFzZWxpbmU6IG1pZGRsZTsgZm9udC1zaXplOiAxMC4ycHg7IiB5PSIwIiB4PSIwIiBpZD0idGV4dC1lbnRpdHktREFUQS0zNTFlMTUyOC1hODcwLTUyZDgtOTc3YS0zYjc3OGI2MjRhMmYtYXR0ci0xLWtleSIgY2xhc3M9ImVyIGVudGl0eUxhYmVsIj5QSzwvdGV4dD48cmVjdCBoZWlnaHQ9IjIyLjUiIHdpZHRoPSIyNDMuNTUwMDAzMDUxNzU3OCIgeT0iMjQuNSIgeD0iMTgyLjAxNjY2MzU1MTMzMDU3IiBjbGFzcz0iZXIgYXR0cmlidXRlQm94T2RkIj48L3JlY3Q+PHRleHQgdHJhbnNmb3JtPSJ0cmFuc2xhdGUoMTg3LjAxNjY2MzU1MTMzMDU3LDM1Ljc1KSIgc3R5bGU9ImRvbWluYW50LWJhc2VsaW5lOiBtaWRkbGU7IGZvbnQtc2l6ZTogMTAuMnB4OyIgeT0iMCIgeD0iMCIgaWQ9InRleHQtZW50aXR5LURBVEEtMzUxZTE1MjgtYTg3MC01MmQ4LTk3N2EtM2I3NzhiNjI0YTJmLWF0dHItMS1jb21tZW50IiBjbGFzcz0iZXIgZW50aXR5TGFiZWwiPlVuaXF1ZSBJRCBmb3IgZWFjaCBtZWFzdXJlbWVudCBmcm9tIGVhY2ggc2Vuc29yPC90ZXh0PjxyZWN0IGhlaWdodD0iMjIuNSIgd2lkdGg9IjYwLjcwMDAwMDc2MjkzOTQ1IiB5PSI0NyIgeD0iMCIgY2xhc3M9ImVyIGF0dHJpYnV0ZUJveEV2ZW4iPjwvcmVjdD48dGV4dCB0cmFuc2Zvcm09InRyYW5zbGF0ZSg1LDU4LjI1KSIgc3R5bGU9ImRvbWluYW50LWJhc2VsaW5lOiBtaWRkbGU7IGZvbnQtc2l6ZTogMTAuMnB4OyIgeT0iMCIgeD0iMCIgaWQ9InRleHQtZW50aXR5LURBVEEtMzUxZTE1MjgtYTg3MC01MmQ4LTk3N2EtM2I3NzhiNjI0YTJmLWF0dHItMi10eXBlIiBjbGFzcz0iZXIgZW50aXR5TGFiZWwiPmludDwvdGV4dD48cmVjdCBoZWlnaHQ9IjIyLjUiIHdpZHRoPSI5Ny43MzMzMjk3NzI5NDkyMiIgeT0iNDciIHg9IjYwLjcwMDAwMDc2MjkzOTQ1IiBjbGFzcz0iZXIgYXR0cmlidXRlQm94RXZlbiI+PC9yZWN0Pjx0ZXh0IHRyYW5zZm9ybT0idHJhbnNsYXRlKDY1LjcwMDAwMDc2MjkzOTQ1LDU4LjI1KSIgc3R5bGU9ImRvbWluYW50LWJhc2VsaW5lOiBtaWRkbGU7IGZvbnQtc2l6ZTogMTAuMnB4OyIgeT0iMCIgeD0iMCIgaWQ9InRleHQtZW50aXR5LURBVEEtMzUxZTE1MjgtYTg3MC01MmQ4LTk3N2EtM2I3NzhiNjI0YTJmLWF0dHItMi1uYW1lIiBjbGFzcz0iZXIgZW50aXR5TGFiZWwiPnNlbnNvcl9pZDwvdGV4dD48cmVjdCBoZWlnaHQ9IjIyLjUiIHdpZHRoPSIyMy41ODMzMzMwMTU0NDE4OTUiIHk9IjQ3IiB4PSIxNTguNDMzMzMwNTM1ODg4NjciIGNsYXNzPSJlciBhdHRyaWJ1dGVCb3hFdmVuIj48L3JlY3Q+PHRleHQgdHJhbnNmb3JtPSJ0cmFuc2xhdGUoMTYzLjQzMzMzMDUzNTg4ODY3LDU4LjI1KSIgc3R5bGU9ImRvbWluYW50LWJhc2VsaW5lOiBtaWRkbGU7IGZvbnQtc2l6ZTogMTAuMnB4OyIgeT0iMCIgeD0iMCIgaWQ9InRleHQtZW50aXR5LURBVEEtMzUxZTE1MjgtYTg3MC01MmQ4LTk3N2EtM2I3NzhiNjI0YTJmLWF0dHItMi1rZXkiIGNsYXNzPSJlciBlbnRpdHlMYWJlbCI+Rks8L3RleHQ+PHJlY3QgaGVpZ2h0PSIyMi41IiB3aWR0aD0iMjQzLjU1MDAwMzA1MTc1NzgiIHk9IjQ3IiB4PSIxODIuMDE2NjYzNTUxMzMwNTciIGNsYXNzPSJlciBhdHRyaWJ1dGVCb3hFdmVuIj48L3JlY3Q+PHRleHQgdHJhbnNmb3JtPSJ0cmFuc2xhdGUoMTg3LjAxNjY2MzU1MTMzMDU3LDU4LjI1KSIgc3R5bGU9ImRvbWluYW50LWJhc2VsaW5lOiBtaWRkbGU7IGZvbnQtc2l6ZTogMTAuMnB4OyIgeT0iMCIgeD0iMCIgaWQ9InRleHQtZW50aXR5LURBVEEtMzUxZTE1MjgtYTg3MC01MmQ4LTk3N2EtM2I3NzhiNjI0YTJmLWF0dHItMi1jb21tZW50IiBjbGFzcz0iZXIgZW50aXR5TGFiZWwiPlJlZmVyZW5jZXMgU0VOU09SX0lEPC90ZXh0PjxyZWN0IGhlaWdodD0iMjIuNSIgd2lkdGg9IjYwLjcwMDAwMDc2MjkzOTQ1IiB5PSI2OS41IiB4PSIwIiBjbGFzcz0iZXIgYXR0cmlidXRlQm94T2RkIj48L3JlY3Q+PHRleHQgdHJhbnNmb3JtPSJ0cmFuc2xhdGUoNSw4MC43NSkiIHN0eWxlPSJkb21pbmFudC1iYXNlbGluZTogbWlkZGxlOyBmb250LXNpemU6IDEwLjJweDsiIHk9IjAiIHg9IjAiIGlkPSJ0ZXh0LWVudGl0eS1EQVRBLTM1MWUxNTI4LWE4NzAtNTJkOC05NzdhLTNiNzc4YjYyNGEyZi1hdHRyLTMtdHlwZSIgY2xhc3M9ImVyIGVudGl0eUxhYmVsIj5pbnQ8L3RleHQ+PHJlY3QgaGVpZ2h0PSIyMi41IiB3aWR0aD0iOTcuNzMzMzI5NzcyOTQ5MjIiIHk9IjY5LjUiIHg9IjYwLjcwMDAwMDc2MjkzOTQ1IiBjbGFzcz0iZXIgYXR0cmlidXRlQm94T2RkIj48L3JlY3Q+PHRleHQgdHJhbnNmb3JtPSJ0cmFuc2xhdGUoNjUuNzAwMDAwNzYyOTM5NDUsODAuNzUpIiBzdHlsZT0iZG9taW5hbnQtYmFzZWxpbmU6IG1pZGRsZTsgZm9udC1zaXplOiAxMC4ycHg7IiB5PSIwIiB4PSIwIiBpZD0idGV4dC1lbnRpdHktREFUQS0zNTFlMTUyOC1hODcwLTUyZDgtOTc3YS0zYjc3OGI2MjRhMmYtYXR0ci0zLW5hbWUiIGNsYXNzPSJlciBlbnRpdHlMYWJlbCI+YmVlaGl2ZV9pZDwvdGV4dD48cmVjdCBoZWlnaHQ9IjIyLjUiIHdpZHRoPSIyMy41ODMzMzMwMTU0NDE4OTUiIHk9IjY5LjUiIHg9IjE1OC40MzMzMzA1MzU4ODg2NyIgY2xhc3M9ImVyIGF0dHJpYnV0ZUJveE9kZCI+PC9yZWN0Pjx0ZXh0IHRyYW5zZm9ybT0idHJhbnNsYXRlKDE2My40MzMzMzA1MzU4ODg2Nyw4MC43NSkiIHN0eWxlPSJkb21pbmFudC1iYXNlbGluZTogbWlkZGxlOyBmb250LXNpemU6IDEwLjJweDsiIHk9IjAiIHg9IjAiIGlkPSJ0ZXh0LWVudGl0eS1EQVRBLTM1MWUxNTI4LWE4NzAtNTJkOC05NzdhLTNiNzc4YjYyNGEyZi1hdHRyLTMta2V5IiBjbGFzcz0iZXIgZW50aXR5TGFiZWwiPkZLPC90ZXh0PjxyZWN0IGhlaWdodD0iMjIuNSIgd2lkdGg9IjI0My41NTAwMDMwNTE3NTc4IiB5PSI2OS41IiB4PSIxODIuMDE2NjYzNTUxMzMwNTciIGNsYXNzPSJlciBhdHRyaWJ1dGVCb3hPZGQiPjwvcmVjdD48dGV4dCB0cmFuc2Zvcm09InRyYW5zbGF0ZSgxODcuMDE2NjYzNTUxMzMwNTcsODAuNzUpIiBzdHlsZT0iZG9taW5hbnQtYmFzZWxpbmU6IG1pZGRsZTsgZm9udC1zaXplOiAxMC4ycHg7IiB5PSIwIiB4PSIwIiBpZD0idGV4dC1lbnRpdHktREFUQS0zNTFlMTUyOC1hODcwLTUyZDgtOTc3YS0zYjc3OGI2MjRhMmYtYXR0ci0zLWNvbW1lbnQiIGNsYXNzPSJlciBlbnRpdHlMYWJlbCI+UmVmZXJlbmNlcyBCRUVISVZFX0lEPC90ZXh0PjxyZWN0IGhlaWdodD0iMjIuNSIgd2lkdGg9IjYwLjcwMDAwMDc2MjkzOTQ1IiB5PSI5MiIgeD0iMCIgY2xhc3M9ImVyIGF0dHJpYnV0ZUJveEV2ZW4iPjwvcmVjdD48dGV4dCB0cmFuc2Zvcm09InRyYW5zbGF0ZSg1LDEwMy4yNSkiIHN0eWxlPSJkb21pbmFudC1iYXNlbGluZTogbWlkZGxlOyBmb250LXNpemU6IDEwLjJweDsiIHk9IjAiIHg9IjAiIGlkPSJ0ZXh0LWVudGl0eS1EQVRBLTM1MWUxNTI4LWE4NzAtNTJkOC05NzdhLTNiNzc4YjYyNGEyZi1hdHRyLTQtdHlwZSIgY2xhc3M9ImVyIGVudGl0eUxhYmVsIj5zdHJpbmc8L3RleHQ+PHJlY3QgaGVpZ2h0PSIyMi41IiB3aWR0aD0iOTcuNzMzMzI5NzcyOTQ5MjIiIHk9IjkyIiB4PSI2MC43MDAwMDA3NjI5Mzk0NSIgY2xhc3M9ImVyIGF0dHJpYnV0ZUJveEV2ZW4iPjwvcmVjdD48dGV4dCB0cmFuc2Zvcm09InRyYW5zbGF0ZSg2NS43MDAwMDA3NjI5Mzk0NSwxMDMuMjUpIiBzdHlsZT0iZG9taW5hbnQtYmFzZWxpbmU6IG1pZGRsZTsgZm9udC1zaXplOiAxMC4ycHg7IiB5PSIwIiB4PSIwIiBpZD0idGV4dC1lbnRpdHktREFUQS0zNTFlMTUyOC1hODcwLTUyZDgtOTc3YS0zYjc3OGI2MjRhMmYtYXR0ci00LW5hbWUiIGNsYXNzPSJlciBlbnRpdHlMYWJlbCI+bWVhc3VyZW1lbnRfdW5pdDwvdGV4dD48cmVjdCBoZWlnaHQ9IjIyLjUiIHdpZHRoPSIyMy41ODMzMzMwMTU0NDE4OTUiIHk9IjkyIiB4PSIxNTguNDMzMzMwNTM1ODg4NjciIGNsYXNzPSJlciBhdHRyaWJ1dGVCb3hFdmVuIj48L3JlY3Q+PHRleHQgdHJhbnNmb3JtPSJ0cmFuc2xhdGUoMTYzLjQzMzMzMDUzNTg4ODY3LDEwMy4yNSkiIHN0eWxlPSJkb21pbmFudC1iYXNlbGluZTogbWlkZGxlOyBmb250LXNpemU6IDEwLjJweDsiIHk9IjAiIHg9IjAiIGlkPSJ0ZXh0LWVudGl0eS1EQVRBLTM1MWUxNTI4LWE4NzAtNTJkOC05NzdhLTNiNzc4YjYyNGEyZi1hdHRyLTQta2V5IiBjbGFzcz0iZXIgZW50aXR5TGFiZWwiPjwvdGV4dD48cmVjdCBoZWlnaHQ9IjIyLjUiIHdpZHRoPSIyNDMuNTUwMDAzMDUxNzU3OCIgeT0iOTIiIHg9IjE4Mi4wMTY2NjM1NTEzMzA1NyIgY2xhc3M9ImVyIGF0dHJpYnV0ZUJveEV2ZW4iPjwvcmVjdD48dGV4dCB0cmFuc2Zvcm09InRyYW5zbGF0ZSgxODcuMDE2NjYzNTUxMzMwNTcsMTAzLjI1KSIgc3R5bGU9ImRvbWluYW50LWJhc2VsaW5lOiBtaWRkbGU7IGZvbnQtc2l6ZTogMTAuMnB4OyIgeT0iMCIgeD0iMCIgaWQ9InRleHQtZW50aXR5LURBVEEtMzUxZTE1MjgtYTg3MC01MmQ4LTk3N2EtM2I3NzhiNjI0YTJmLWF0dHItNC1jb21tZW50IiBjbGFzcz0iZXIgZW50aXR5TGFiZWwiPkVudHJ5IGZvciB0aGUgbWVhc3VyZW1lbnQgdW5pdDwvdGV4dD48cmVjdCBoZWlnaHQ9IjIyLjUiIHdpZHRoPSI2MC43MDAwMDA3NjI5Mzk0NSIgeT0iMTE0LjUiIHg9IjAiIGNsYXNzPSJlciBhdHRyaWJ1dGVCb3hPZGQiPjwvcmVjdD48dGV4dCB0cmFuc2Zvcm09InRyYW5zbGF0ZSg1LDEyNS43NSkiIHN0eWxlPSJkb21pbmFudC1iYXNlbGluZTogbWlkZGxlOyBmb250LXNpemU6IDEwLjJweDsiIHk9IjAiIHg9IjAiIGlkPSJ0ZXh0LWVudGl0eS1EQVRBLTM1MWUxNTI4LWE4NzAtNTJkOC05NzdhLTNiNzc4YjYyNGEyZi1hdHRyLTUtdHlwZSIgY2xhc3M9ImVyIGVudGl0eUxhYmVsIj50aW1lc3RhbXA8L3RleHQ+PHJlY3QgaGVpZ2h0PSIyMi41IiB3aWR0aD0iOTcuNzMzMzI5NzcyOTQ5MjIiIHk9IjExNC41IiB4PSI2MC43MDAwMDA3NjI5Mzk0NSIgY2xhc3M9ImVyIGF0dHJpYnV0ZUJveE9kZCI+PC9yZWN0Pjx0ZXh0IHRyYW5zZm9ybT0idHJhbnNsYXRlKDY1LjcwMDAwMDc2MjkzOTQ1LDEyNS43NSkiIHN0eWxlPSJkb21pbmFudC1iYXNlbGluZTogbWlkZGxlOyBmb250LXNpemU6IDEwLjJweDsiIHk9IjAiIHg9IjAiIGlkPSJ0ZXh0LWVudGl0eS1EQVRBLTM1MWUxNTI4LWE4NzAtNTJkOC05NzdhLTNiNzc4YjYyNGEyZi1hdHRyLTUtbmFtZSIgY2xhc3M9ImVyIGVudGl0eUxhYmVsIj50aW1lc3RhbXA8L3RleHQ+PHJlY3QgaGVpZ2h0PSIyMi41IiB3aWR0aD0iMjMuNTgzMzMzMDE1NDQxODk1IiB5PSIxMTQuNSIgeD0iMTU4LjQzMzMzMDUzNTg4ODY3IiBjbGFzcz0iZXIgYXR0cmlidXRlQm94T2RkIj48L3JlY3Q+PHRleHQgdHJhbnNmb3JtPSJ0cmFuc2xhdGUoMTYzLjQzMzMzMDUzNTg4ODY3LDEyNS43NSkiIHN0eWxlPSJkb21pbmFudC1iYXNlbGluZTogbWlkZGxlOyBmb250LXNpemU6IDEwLjJweDsiIHk9IjAiIHg9IjAiIGlkPSJ0ZXh0LWVudGl0eS1EQVRBLTM1MWUxNTI4LWE4NzAtNTJkOC05NzdhLTNiNzc4YjYyNGEyZi1hdHRyLTUta2V5IiBjbGFzcz0iZXIgZW50aXR5TGFiZWwiPjwvdGV4dD48cmVjdCBoZWlnaHQ9IjIyLjUiIHdpZHRoPSIyNDMuNTUwMDAzMDUxNzU3OCIgeT0iMTE0LjUiIHg9IjE4Mi4wMTY2NjM1NTEzMzA1NyIgY2xhc3M9ImVyIGF0dHJpYnV0ZUJveE9kZCI+PC9yZWN0Pjx0ZXh0IHRyYW5zZm9ybT0idHJhbnNsYXRlKDE4Ny4wMTY2NjM1NTEzMzA1NywxMjUuNzUpIiBzdHlsZT0iZG9taW5hbnQtYmFzZWxpbmU6IG1pZGRsZTsgZm9udC1zaXplOiAxMC4ycHg7IiB5PSIwIiB4PSIwIiBpZD0idGV4dC1lbnRpdHktREFUQS0zNTFlMTUyOC1hODcwLTUyZDgtOTc3YS0zYjc3OGI2MjRhMmYtYXR0ci01LWNvbW1lbnQiIGNsYXNzPSJlciBlbnRpdHlMYWJlbCI+VGltZXN0YW1wIGZvciB3aGVuIG1lYXN1cmVkPC90ZXh0PjxyZWN0IGhlaWdodD0iMjIuNSIgd2lkdGg9IjYwLjcwMDAwMDc2MjkzOTQ1IiB5PSIxMzciIHg9IjAiIGNsYXNzPSJlciBhdHRyaWJ1dGVCb3hFdmVuIj48L3JlY3Q+PHRleHQgdHJhbnNmb3JtPSJ0cmFuc2xhdGUoNSwxNDguMjUpIiBzdHlsZT0iZG9taW5hbnQtYmFzZWxpbmU6IG1pZGRsZTsgZm9udC1zaXplOiAxMC4ycHg7IiB5PSIwIiB4PSIwIiBpZD0idGV4dC1lbnRpdHktREFUQS0zNTFlMTUyOC1hODcwLTUyZDgtOTc3YS0zYjc3OGI2MjRhMmYtYXR0ci02LXR5cGUiIGNsYXNzPSJlciBlbnRpdHlMYWJlbCI+ZmxvYXQ8L3RleHQ+PHJlY3QgaGVpZ2h0PSIyMi41IiB3aWR0aD0iOTcuNzMzMzI5NzcyOTQ5MjIiIHk9IjEzNyIgeD0iNjAuNzAwMDAwNzYyOTM5NDUiIGNsYXNzPSJlciBhdHRyaWJ1dGVCb3hFdmVuIj48L3JlY3Q+PHRleHQgdHJhbnNmb3JtPSJ0cmFuc2xhdGUoNjUuNzAwMDAwNzYyOTM5NDUsMTQ4LjI1KSIgc3R5bGU9ImRvbWluYW50LWJhc2VsaW5lOiBtaWRkbGU7IGZvbnQtc2l6ZTogMTAuMnB4OyIgeT0iMCIgeD0iMCIgaWQ9InRleHQtZW50aXR5LURBVEEtMzUxZTE1MjgtYTg3MC01MmQ4LTk3N2EtM2I3NzhiNjI0YTJmLWF0dHItNi1uYW1lIiBjbGFzcz0iZXIgZW50aXR5TGFiZWwiPnZhbHVlPC90ZXh0PjxyZWN0IGhlaWdodD0iMjIuNSIgd2lkdGg9IjIzLjU4MzMzMzAxNTQ0MTg5NSIgeT0iMTM3IiB4PSIxNTguNDMzMzMwNTM1ODg4NjciIGNsYXNzPSJlciBhdHRyaWJ1dGVCb3hFdmVuIj48L3JlY3Q+PHRleHQgdHJhbnNmb3JtPSJ0cmFuc2xhdGUoMTYzLjQzMzMzMDUzNTg4ODY3LDE0OC4yNSkiIHN0eWxlPSJkb21pbmFudC1iYXNlbGluZTogbWlkZGxlOyBmb250LXNpemU6IDEwLjJweDsiIHk9IjAiIHg9IjAiIGlkPSJ0ZXh0LWVudGl0eS1EQVRBLTM1MWUxNTI4LWE4NzAtNTJkOC05NzdhLTNiNzc4YjYyNGEyZi1hdHRyLTYta2V5IiBjbGFzcz0iZXIgZW50aXR5TGFiZWwiPjwvdGV4dD48cmVjdCBoZWlnaHQ9IjIyLjUiIHdpZHRoPSIyNDMuNTUwMDAzMDUxNzU3OCIgeT0iMTM3IiB4PSIxODIuMDE2NjYzNTUxMzMwNTciIGNsYXNzPSJlciBhdHRyaWJ1dGVCb3hFdmVuIj48L3JlY3Q+PHRleHQgdHJhbnNmb3JtPSJ0cmFuc2xhdGUoMTg3LjAxNjY2MzU1MTMzMDU3LDE0OC4yNSkiIHN0eWxlPSJkb21pbmFudC1iYXNlbGluZTogbWlkZGxlOyBmb250LXNpemU6IDEwLjJweDsiIHk9IjAiIHg9IjAiIGlkPSJ0ZXh0LWVudGl0eS1EQVRBLTM1MWUxNTI4LWE4NzAtNTJkOC05NzdhLTNiNzc4YjYyNGEyZi1hdHRyLTYtY29tbWVudCIgY2xhc3M9ImVyIGVudGl0eUxhYmVsIj5WYWx1ZSBvZiB0aGUgbWVhc3VyZSwgTk9UIE5VTEw8L3RleHQ+PC9nPjxyZWN0IGhlaWdodD0iMTQuNSIgd2lkdGg9IjE5LjcwMDAwMDc2MjkzOTQ1MyIgeT0iMjE1LjI3MDU2ODg0NzY1NjI1IiB4PSIyMDYuNjgwOTc0OTYwMzI3MTUiIGNsYXNzPSJlciByZWxhdGlvbnNoaXBMYWJlbEJveCI+PC9yZWN0Pjx0ZXh0IHN0eWxlPSJ0ZXh0LWFuY2hvcjogbWlkZGxlOyBkb21pbmFudC1iYXNlbGluZTogbWlkZGxlOyBmb250LXNpemU6IDEycHg7IiB5PSIyMjIuNTIwNTY4ODQ3NjU2MjUiIHg9IjIxNi41MzA5NzUzNDE3OTY4OCIgaWQ9InJlbDk2IiBjbGFzcz0iZXIgcmVsYXRpb25zaGlwTGFiZWwiPmhhczwvdGV4dD48cmVjdCBoZWlnaHQ9IjE0LjUiIHdpZHRoPSI0ODkuODk5OTkzODk2NDg0NCIgeT0iNTMzLjcyOTQzMTE1MjM0MzgiIHg9Ii0yOC40MTkwOTc5MDAzOTA2MjUiIGNsYXNzPSJlciByZWxhdGlvbnNoaXBMYWJlbEJveCI+PC9yZWN0Pjx0ZXh0IHN0eWxlPSJ0ZXh0LWFuY2hvcjogbWlkZGxlOyBkb21pbmFudC1iYXNlbGluZTogbWlkZGxlOyBmb250LXNpemU6IDEycHg7IiB5PSI1NDAuOTc5NDMxMTUyMzQzOCIgeD0iMjE2LjUzMDg5OTA0Nzg1MTU2IiBpZD0icmVsOTciIGNsYXNzPSJlciByZWxhdGlvbnNoaXBMYWJlbCI+cmVjb3JkcyBmb3IgZWFjaCBTZW5zb3IgTWVhc3VyZW1lbnQgVW5pdCBhbmQgY3JlYXRlcyBuZXcgVGFibGUgaWYgbm90IGV4aXNpdGluZyAtIFZhcmlhZGljPC90ZXh0PjxyZWN0IGhlaWdodD0iMTQuNSIgd2lkdGg9IjE5LjcwMDAwMDc2MjkzOTQ1MyIgeT0iMzc0LjUwMDIxMzYyMzA0NjkiIHg9IjQ3Ni40MTY5OTc5MDk1NDU5IiBjbGFzcz0iZXIgcmVsYXRpb25zaGlwTGFiZWxCb3giPjwvcmVjdD48dGV4dCBzdHlsZT0idGV4dC1hbmNob3I6IG1pZGRsZTsgZG9taW5hbnQtYmFzZWxpbmU6IG1pZGRsZTsgZm9udC1zaXplOiAxMnB4OyIgeT0iMzgxLjc1MDIxMzYyMzA0NjkiIHg9IjQ4Ni4yNjY5OTgyOTEwMTU2IiBpZD0icmVsOTgiIGNsYXNzPSJlciByZWxhdGlvbnNoaXBMYWJlbCI+aGFzPC90ZXh0Pjwvc3ZnPg==;" parent="1" vertex="1">
            <mxGeometry x="40" y="-1000" width="750" height="810" as="geometry" />
          </mxCell>
        </UserObject>
      </root>
    </mxGraphModel>
  </diagram>
</mxfile>
